<svg width="115" height="93" viewBox="0 0 115 93" fill="none" xmlns="http://www.w3.org/2000/svg">
<rect width="115" height="93" fill="white" fill-opacity="0.2"/>
<mask id="mask0_2755_19017" style="mask-type:alpha" maskUnits="userSpaceOnUse" x="1" y="1" width="114" height="92">
<rect x="1" y="1" width="113.678" height="91.6714" fill="white"/>
</mask>
<g mask="url(#mask0_2755_19017)">
<path d="M66.4134 97.7847C59.5623 94.8234 60.4061 79.7753 61.6844 72.6214C68.2674 65.7708 72.5411 71.674 73.8551 75.4819C74.2292 84.1501 73.2645 100.746 66.4134 97.7847Z" fill="#B9B9B9"/>
<path d="M98.4892 51.6562C104.741 52.5988 115.932 56.2677 119.433 63.8082C121.256 67.7355 122.809 76.1314 121.934 78.5192C121.351 80.1102 116.771 81.0317 111.958 81.5216C112.652 85.54 113.101 89.2681 113.337 92.1864C113.337 100.841 110.628 117.995 109.274 125.49C102.647 127.627 82.7552 125.647 73.6379 124.391L70.9808 79.9331V77.7894C67.4596 74.4348 63.7086 74.6476 61.5204 73.3908L61.3677 75.1189C58.7098 72.7625 60.895 68.5209 64.9588 62.7085C69.0225 56.896 70.3556 57.1545 82.5468 54.9552C92.2998 53.1958 97.2388 52.0228 98.4892 51.6562Z" fill="url(#paint0_linear_2755_19017)"/>
<path d="M85.9844 55.8578V50.4667L98.4882 43.6484C96.9599 47.2003 97.8514 50.6252 98.4882 51.8937C95.2928 56.7141 88.8209 56.5449 85.9844 55.8578Z" fill="#DEDEDE"/>
<path d="M99.119 41.6048C97.1143 49.3734 85.0523 51.5883 84.1146 50.8733C79.5818 47.4173 78.2023 43.561 80.207 35.7924C82.2117 28.0238 87.7523 23.8813 94.2738 25.5813C100.795 27.2814 101.124 33.8363 99.119 41.6048Z" fill="#DEDEDE"/>
<path d="M91.2048 29.8209C92.5266 27.5696 93.3409 28.6689 94.4871 29.8209C98.8634 27.9358 95.515 36.8901 96.609 37.9897C97.4843 38.8695 98.6409 37.9897 100.204 37.2043V43.3309C105.674 40.8174 105.987 34.5337 106.299 29.8209C106.612 25.1081 96.7654 14.1115 86.606 19.2956C76.4466 24.4797 75.3411 33.8804 80.3001 35.5411C81.094 32.3525 83.7149 30.399 84.9261 29.8209C85.4262 30.5749 82.2154 33.2769 83.9347 33.2769C86.3104 33.8571 89.9914 31.8875 91.2048 29.8209Z" fill="url(#paint1_linear_2755_19017)"/>
<path d="M101.775 37.2072C100.524 35.1964 99.3781 38.0451 98.9613 39.7207L97.8672 44.5906C103.494 41.92 103.338 39.7207 101.775 37.2072Z" fill="#DEDEDE"/>
<path fill-rule="evenodd" clip-rule="evenodd" d="M79.4192 106.406C78.4547 105.17 74.4614 104.125 73.6801 104.142C72.8989 104.158 72.5998 104.793 73.4244 105.341C74.2757 105.668 75.4862 106.711 75.5029 107.496C74.3317 108.286 72.2726 109.088 70.9283 108.506C69.1296 107.728 66.0839 107.134 66.0043 107.796C65.8716 108.899 66.2742 110.178 69.4764 112.246C72.6786 114.314 76.3295 115.429 80.3687 114.242C80.6483 114.159 80.8889 114.048 81.0937 113.912C88.9881 113.079 105.159 106.32 109.243 102.901C112.511 100.166 118.07 85.3632 120.441 78.3039L107.332 80.8503C106.466 84.6612 103.781 93.1519 99.9789 96.6282C96.263 100.025 85.8613 104.917 79.9725 106.986C79.7917 106.775 79.6062 106.581 79.4192 106.406Z" fill="#E8E8E8"/>
<path d="M60.5333 73.4677C60.2395 72.9262 60.9919 73.1612 61.4049 73.3464L61.2676 74.3446C61.1452 74.2779 60.8271 74.0092 60.5333 73.4677Z" fill="#AF4DEC"/>
<path d="M90.6733 49.3594C89.0657 50.3912 86.8775 50.7925 85.9844 50.8642V53.4438C87.2348 53.2718 89.6313 50.6492 90.6733 49.3594Z" fill="#B9B9B9"/>
<ellipse rx="4.68896" ry="4.71277" transform="matrix(0.999264 0.0383659 -0.0379787 0.999279 82.1706 51.0065)" fill="url(#paint2_linear_2755_19017)"/>
<path d="M84.9503 54.4849C83.5066 52.5143 79.8053 52.8818 78.4676 53.3691L75.9495 70.1571C77.2459 71.3848 79.8141 71.2409 80.9361 71.0154L84.9503 54.4849Z" fill="#471B62"/>
<path d="M82.2129 48.8059C80.1786 48.7278 77.7103 49.7269 77.4011 50.0361C77.0918 50.3452 77.2313 50.838 77.5473 50.8502C78.0889 50.4271 79.6614 49.5165 82.1822 49.6133C84.7099 49.7103 86.2162 51.1482 86.7167 51.8086C87.1912 51.6696 87.1838 51.2202 87.0335 51.0123C86.4136 50.1552 84.2666 48.8848 82.2129 48.8059Z" fill="#D798FF"/>
<path d="M63.5867 94.2391C62.5441 85.6743 68.7385 70.218 71.966 63.5604C78.8119 55.9084 79.5588 63.7498 80.2911 67.3787C76.7147 68.9918 75.2312 88.2587 74.9045 93.8031C74.5778 99.3475 64.89 104.945 63.5867 94.2391Z" fill="#DEDEDE"/>
<path d="M76.8665 57.727C76.2118 57.8882 75.5639 59.5008 75.3218 60.287C76.1999 60.1937 77.9778 59.7404 78.0645 58.6728C78.173 57.3382 77.6848 57.5255 76.8665 57.727Z" fill="#B9B9B9"/>
<path d="M82.6189 56.8723C79.3116 56.8819 74.3947 60.174 72.3816 63.3379C72.8392 66.3103 79.376 68.4506 81.005 67.21C83.0874 65.6242 81.3288 65.4023 84.6023 64.5997C85.3203 64.4237 87.4229 64.8106 87.3663 63.4832C87.3097 62.1558 82.3292 63.7893 82.8878 63.1775C83.5199 62.4853 87.3308 62.6502 86.9369 61.1711C86.5431 59.692 81.0294 62.2602 81.1733 61.7553C81.2884 61.3514 82.7337 60.8569 83.442 60.6602C84.7462 60.2161 86.8536 59.2166 84.8499 58.771C82.3454 58.214 79.9469 60.1458 79.9257 59.6481C79.9045 59.1503 82.1873 58.387 83.3429 58.3372C84.4985 58.2874 86.7531 56.8604 82.6189 56.8723Z" fill="#DEDEDE"/>
</g>
<defs>
<linearGradient id="paint0_linear_2755_19017" x1="60.2031" y1="88.8735" x2="122.185" y2="88.8735" gradientUnits="userSpaceOnUse">
<stop stop-color="#AF4DEC"/>
<stop offset="1" stop-color="#6D7EF7"/>
</linearGradient>
<linearGradient id="paint1_linear_2755_19017" x1="77.4375" y1="30.5757" x2="106.307" y2="30.5757" gradientUnits="userSpaceOnUse">
<stop stop-color="#AF4DEC"/>
<stop offset="1" stop-color="#6D7EF7"/>
</linearGradient>
<linearGradient id="paint2_linear_2755_19017" x1="0" y1="4.69105" x2="9.37791" y2="4.69105" gradientUnits="userSpaceOnUse">
<stop stop-color="#AF4DEC"/>
<stop offset="1" stop-color="#6D7EF7"/>
</linearGradient>
</defs>
</svg>
