<svg width="58" height="58" viewBox="0 0 58 58" fill="none" xmlns="http://www.w3.org/2000/svg">
<g filter="url(#filter0_d_2441_18990)">
<rect x="4" width="50" height="50" rx="10" fill="#7E86AF"/>
</g>
<path d="M28.875 34.1132C30.1445 34.1132 31.3359 33.874 32.4492 33.3955C33.5625 32.917 34.5423 32.2529 35.3887 31.4033C36.235 30.5537 36.8975 29.5707 37.376 28.4541C37.8545 27.3376 38.0938 26.1446 38.0938 24.875C38.0938 23.6055 37.8545 22.4124 37.376 21.2959C36.8975 20.1794 36.235 19.1963 35.3887 18.3467C34.5423 17.4971 33.5625 16.833 32.4492 16.3545C31.3359 15.876 30.1445 15.6367 28.875 15.6367C27.6055 15.6367 26.4141 15.876 25.3008 16.3545C24.1875 16.833 23.2077 17.4971 22.3613 18.3467C21.515 19.1963 20.8525 20.1794 20.374 21.2959C19.8955 22.4124 19.6562 23.6055 19.6562 24.875C19.6562 26.1446 19.8955 27.3376 20.374 28.4541C20.8525 29.5707 21.515 30.5537 22.3613 31.4033C23.2077 32.2529 24.1875 32.917 25.3008 33.3955C26.4141 33.874 27.6055 34.1132 28.875 34.1132ZM28.875 32.5214C27.8138 32.5214 26.8258 32.3261 25.9111 31.9355C24.9964 31.5449 24.194 31.0013 23.5039 30.3047C22.8138 29.6081 22.2734 28.7959 21.8828 27.8681C21.4922 26.9404 21.2969 25.9427 21.2969 24.875C21.2969 23.8073 21.4922 22.8112 21.8828 21.8867C22.2734 20.9622 22.8138 20.1501 23.5039 19.4502C24.194 18.7503 24.9964 18.2051 25.9111 17.8145C26.8258 17.4238 27.8138 17.2285 28.875 17.2285C29.9362 17.2285 30.9242 17.4238 31.8389 17.8145C32.7536 18.2051 33.556 18.7503 34.2461 19.4502C34.9362 20.1501 35.4765 20.9622 35.8672 21.8867C36.2578 22.8112 36.4531 23.8073 36.4531 24.875C36.4531 25.9427 36.2578 26.9404 35.8672 27.8681C35.4765 28.7959 34.9362 29.6081 34.2461 30.3047C33.556 31.0013 32.7536 31.5449 31.8389 31.9355C30.9242 32.3261 29.9362 32.5214 28.875 32.5214ZM28.875 36.75C29.0703 36.75 29.2347 36.6817 29.3682 36.5449C29.5017 36.4082 29.5684 36.2422 29.5684 36.0468V29.4355C29.5684 29.2402 29.5017 29.0758 29.3682 28.9423C29.2347 28.8089 29.0703 28.7422 28.875 28.7422C28.6797 28.7422 28.5137 28.8089 28.377 28.9423C28.2403 29.0758 28.1719 29.2402 28.1719 29.4355V36.0468C28.1719 36.2422 28.2403 36.4082 28.377 36.5449C28.5137 36.6817 28.6797 36.75 28.875 36.75ZM17.7031 25.5781H24.3144C24.5098 25.5781 24.6758 25.5098 24.8125 25.373C24.9492 25.2363 25.0176 25.0703 25.0176 24.875C25.0176 24.6797 24.9492 24.5153 24.8125 24.3818C24.6758 24.2484 24.5098 24.1816 24.3144 24.1816H17.7031C17.5078 24.1816 17.3418 24.2484 17.2051 24.3818C17.0684 24.5153 17 24.6797 17 24.875C17 25.0703 17.0684 25.2363 17.2051 25.373C17.3418 25.5098 17.5078 25.5781 17.7031 25.5781ZM28.875 21.0176C29.0703 21.0176 29.2347 20.9492 29.3682 20.8125C29.5017 20.6758 29.5684 20.5098 29.5684 20.3145V13.7031C29.5684 13.5078 29.5017 13.3418 29.3682 13.2051C29.2347 13.0684 29.0703 13 28.875 13C28.6797 13 28.5137 13.0684 28.377 13.2051C28.2403 13.3418 28.1719 13.5078 28.1719 13.7031V20.3145C28.1719 20.5098 28.2403 20.6758 28.377 20.8125C28.5137 20.9492 28.6797 21.0176 28.875 21.0176ZM33.4355 25.5781H40.0469C40.2422 25.5781 40.4082 25.5098 40.5449 25.373C40.6816 25.2363 40.75 25.0703 40.75 24.875C40.75 24.6797 40.6816 24.5153 40.5449 24.3818C40.4082 24.2484 40.2422 24.1816 40.0469 24.1816H33.4355C33.2402 24.1816 33.0742 24.2484 32.9375 24.3818C32.8008 24.5153 32.7324 24.6797 32.7324 24.875C32.7324 25.0703 32.8008 25.2363 32.9375 25.373C33.0742 25.5098 33.2402 25.5781 33.4355 25.5781Z" fill="white" fill-opacity="0.85"/>
<defs>
<filter id="filter0_d_2441_18990" x="0" y="0" width="58" height="58" filterUnits="userSpaceOnUse" color-interpolation-filters="sRGB">
<feFlood flood-opacity="0" result="BackgroundImageFix"/>
<feColorMatrix in="SourceAlpha" type="matrix" values="0 0 0 0 0 0 0 0 0 0 0 0 0 0 0 0 0 0 127 0" result="hardAlpha"/>
<feOffset dy="4"/>
<feGaussianBlur stdDeviation="2"/>
<feComposite in2="hardAlpha" operator="out"/>
<feColorMatrix type="matrix" values="0 0 0 0 0 0 0 0 0 0 0 0 0 0 0 0 0 0 0.1 0"/>
<feBlend mode="normal" in2="BackgroundImageFix" result="effect1_dropShadow_2441_18990"/>
<feBlend mode="normal" in="SourceGraphic" in2="effect1_dropShadow_2441_18990" result="shape"/>
</filter>
</defs>
</svg>
