<svg width="58" height="58" viewBox="0 0 58 58" fill="none" xmlns="http://www.w3.org/2000/svg">
<g filter="url(#filter0_d_2441_18993)">
<rect x="4" width="50" height="50" rx="10" fill="#7E86AF"/>
</g>
<path d="M27.9617 35.9795H30.0384C30.4358 35.9795 30.7768 35.8681 31.0613 35.6453C31.3457 35.4226 31.5324 35.1193 31.6215 34.7355L32.0635 32.8131L32.3925 32.7L34.0682 33.7281C34.3972 33.9405 34.7433 34.0228 35.1066 33.9748C35.4698 33.9268 35.7919 33.7623 36.0729 33.4813L37.5122 32.0523C37.7932 31.7714 37.9577 31.4493 38.0056 31.086C38.0536 30.7228 37.9713 30.3767 37.7589 30.0477L36.7103 28.3822L36.8337 28.0739L38.7561 27.6215C39.1331 27.5324 39.4346 27.3439 39.6608 27.0561C39.8869 26.7682 40 26.429 40 26.0384V24.0028C40 23.6122 39.8869 23.2729 39.6608 22.9851C39.4346 22.6972 39.1331 22.5087 38.7561 22.4196L36.8542 21.957L36.7205 21.628L37.7692 19.9626C37.9816 19.6337 38.0639 19.2893 38.0159 18.9294C37.9679 18.5696 37.8035 18.2458 37.5224 17.9579L36.0832 16.5187C35.809 16.2445 35.4903 16.0835 35.1271 16.0355C34.7638 15.9875 34.4177 16.0664 34.0888 16.272L32.4131 17.3L32.0635 17.1664L31.6215 15.2439C31.5324 14.867 31.3457 14.5654 31.0613 14.3393C30.7768 14.1131 30.4358 14 30.0384 14H27.9617C27.5642 14 27.2232 14.1131 26.9388 14.3393C26.6544 14.5654 26.4676 14.867 26.3785 15.2439L25.9262 17.1664L25.5766 17.3L23.9112 16.272C23.5754 16.0664 23.2276 15.9875 22.8678 16.0355C22.5079 16.0835 22.1875 16.2445 21.9065 16.5187L20.4776 17.9579C20.1897 18.2458 20.0235 18.5696 19.979 18.9294C19.9344 19.2893 20.0184 19.6337 20.2308 19.9626L21.2692 21.628L21.1458 21.957L19.2439 22.4196C18.8601 22.5087 18.5569 22.6972 18.3341 22.9851C18.1114 23.2729 18 23.6122 18 24.0028V26.0384C18 26.429 18.1131 26.7682 18.3393 27.0561C18.5654 27.3439 18.867 27.5324 19.2439 27.6215L21.1664 28.0739L21.2794 28.3822L20.2411 30.0477C20.0287 30.3767 19.9447 30.7228 19.9893 31.086C20.0338 31.4493 20.2 31.7714 20.4879 32.0523L21.9168 33.4813C22.1978 33.7623 22.5199 33.9268 22.8832 33.9748C23.2464 34.0228 23.596 33.9405 23.9318 33.7281L25.5972 32.7L25.9262 32.8131L26.3785 34.7355C26.4676 35.1193 26.6544 35.4226 26.9388 35.6453C27.2232 35.8681 27.5642 35.9795 27.9617 35.9795ZM28.1262 34.3758C27.9548 34.3758 27.8555 34.2969 27.828 34.1392L27.2112 31.5898C26.896 31.5144 26.5961 31.4167 26.3117 31.2967C26.0273 31.1768 25.7754 31.0483 25.5561 30.9112L23.315 32.2888C23.1916 32.3779 23.0648 32.3608 22.9346 32.2374L21.7215 31.0243C21.6118 30.9215 21.5981 30.7948 21.6804 30.644L23.0579 28.4234C22.9414 28.2041 22.8215 27.9539 22.6981 27.6729C22.5748 27.3919 22.472 27.0938 22.3897 26.7785L19.8402 26.172C19.6826 26.1445 19.6037 26.0452 19.6037 25.8739V24.157C19.6037 23.9925 19.6826 23.8932 19.8402 23.8589L22.3794 23.2421C22.4617 22.9063 22.5696 22.5944 22.7033 22.3066C22.8369 22.0187 22.9483 21.7788 23.0374 21.5869L21.6701 19.3664C21.581 19.2156 21.5913 19.0819 21.7009 18.9654L22.9243 17.7729C23.0477 17.6632 23.1779 17.6461 23.315 17.7215L25.5355 19.0682C25.7548 18.9449 26.0136 18.8215 26.3117 18.6981C26.6098 18.5748 26.9131 18.472 27.2215 18.3897L27.828 15.8402C27.8555 15.6826 27.9548 15.6037 28.1262 15.6037H29.8739C30.0452 15.6037 30.1411 15.6826 30.1617 15.8402L30.7888 18.4103C31.1109 18.4925 31.4108 18.5936 31.6883 18.7136C31.9659 18.8335 32.2177 18.9551 32.4439 19.0785L34.6748 17.7215C34.8187 17.6461 34.9523 17.6632 35.0757 17.7729L36.2888 18.9654C36.4053 19.0819 36.4156 19.2156 36.3196 19.3664L34.9523 21.5869C35.0483 21.7788 35.1614 22.0187 35.2916 22.3066C35.4218 22.5944 35.5281 22.9063 35.6103 23.2421L38.1599 23.8589C38.3175 23.8932 38.3963 23.9925 38.3963 24.157V25.8739C38.3963 26.0452 38.3175 26.1445 38.1599 26.172L35.6 26.7785C35.5178 27.0938 35.4167 27.3919 35.2967 27.6729C35.1768 27.9539 35.0552 28.2041 34.9318 28.4234L36.3094 30.644C36.3984 30.7948 36.3847 30.9215 36.2682 31.0243L35.0654 32.2374C34.9352 32.3608 34.805 32.3779 34.6748 32.2888L32.4336 30.9112C32.2143 31.0483 31.9642 31.1768 31.6832 31.2967C31.4022 31.4167 31.1041 31.5144 30.7888 31.5898L30.1617 34.1392C30.1411 34.2969 30.0452 34.3758 29.8739 34.3758H28.1262ZM29 28.9168C29.7196 28.9168 30.3758 28.7404 30.9687 28.3874C31.5616 28.0345 32.0345 27.5598 32.3874 26.9635C32.7404 26.3673 32.9168 25.7093 32.9168 24.9897C32.9168 24.2769 32.7404 23.6242 32.3874 23.0313C32.0345 22.4385 31.5616 21.9656 30.9687 21.6126C30.3758 21.2597 29.7196 21.0832 29 21.0832C28.2804 21.0832 27.6242 21.2597 27.0313 21.6126C26.4385 21.9656 25.9639 22.4385 25.6075 23.0313C25.2511 23.6242 25.0729 24.2769 25.0729 24.9897C25.0729 25.7093 25.2511 26.3656 25.6075 26.9584C25.9639 27.5513 26.4385 28.0259 27.0313 28.3822C27.6242 28.7386 28.2804 28.9168 29 28.9168ZM29 27.3234C28.5751 27.3234 28.1862 27.2189 27.8332 27.0098C27.4802 26.8008 27.1992 26.5198 26.9902 26.1668C26.7811 25.8138 26.6766 25.4215 26.6766 24.9897C26.6766 24.5648 26.7811 24.1776 26.9902 23.828C27.1992 23.4785 27.4802 23.1992 27.8332 22.9902C28.1862 22.7811 28.5751 22.6766 29 22.6766C29.4181 22.6766 29.8019 22.7811 30.1514 22.9902C30.5009 23.1992 30.7802 23.4785 30.9892 23.828C31.1983 24.1776 31.3028 24.5648 31.3028 24.9897C31.3028 25.4146 31.1983 25.8036 30.9892 26.1565C30.7802 26.5095 30.5009 26.7922 30.1514 27.0047C29.8019 27.2171 29.4181 27.3234 29 27.3234Z" fill="white" fill-opacity="0.85"/>
<defs>
<filter id="filter0_d_2441_18993" x="0" y="0" width="58" height="58" filterUnits="userSpaceOnUse" color-interpolation-filters="sRGB">
<feFlood flood-opacity="0" result="BackgroundImageFix"/>
<feColorMatrix in="SourceAlpha" type="matrix" values="0 0 0 0 0 0 0 0 0 0 0 0 0 0 0 0 0 0 127 0" result="hardAlpha"/>
<feOffset dy="4"/>
<feGaussianBlur stdDeviation="2"/>
<feComposite in2="hardAlpha" operator="out"/>
<feColorMatrix type="matrix" values="0 0 0 0 0 0 0 0 0 0 0 0 0 0 0 0 0 0 0.1 0"/>
<feBlend mode="normal" in2="BackgroundImageFix" result="effect1_dropShadow_2441_18993"/>
<feBlend mode="normal" in="SourceGraphic" in2="effect1_dropShadow_2441_18993" result="shape"/>
</filter>
</defs>
</svg>
