<svg width="115" height="93" viewBox="0 0 115 93" fill="none" xmlns="http://www.w3.org/2000/svg">
<rect width="115" height="93" fill="white" fill-opacity="0.2"/>
<mask id="mask0_2755_19239" style="mask-type:alpha" maskUnits="userSpaceOnUse" x="1" y="1" width="114" height="92">
<rect x="1" y="1" width="113.678" height="91.6714" fill="white"/>
</mask>
<g mask="url(#mask0_2755_19239)">
<path d="M53.6875 76.7374V56.8294C59.8188 56.5303 69.5142 56.9541 73.5955 57.2033V77.2982H62.9405C57.2578 77.4477 54.4041 76.9866 53.6875 76.7374Z" fill="url(#paint0_linear_2755_19239)"/>
<g filter="url(#filter0_d_2755_19239)">
<path d="M69.6465 57.7656C69.1979 57.7656 69.0468 57.9993 69.0156 58.0928C69.0156 59.0586 69.0483 60.9247 69.6465 60.85C70.2447 60.7752 70.3241 58.9651 70.2307 58.0928C70.2307 57.9681 70.0951 57.7656 69.6465 57.7656Z" fill="white" fill-opacity="0.8" shape-rendering="crispEdges"/>
</g>
<g filter="url(#filter1_d_2755_19239)">
<path d="M73.5478 58.2386C73.6226 57.8647 73.9528 57.7713 74.1086 57.7713H74.2021C74.4264 57.744 74.5448 57.8222 74.5759 57.8647C74.6071 58.0205 74.6507 58.5377 74.5759 59.3602C74.5011 60.1826 73.8593 60.326 73.5478 60.2948C73.5166 59.7652 73.473 58.6124 73.5478 58.2386Z" fill="white" fill-opacity="0.8" shape-rendering="crispEdges"/>
</g>
<ellipse cx="49.6347" cy="36.8379" rx="12.0047" ry="3.1846" transform="rotate(11.4379 49.6347 36.8379)" fill="url(#paint1_radial_2755_19239)"/>
<path d="M48.6406 35.0482V36.0763L50.6968 36.5436V35.4221C50.323 35.0482 49.2637 35.017 48.6406 35.0482Z" fill="#AF4DEC"/>
<path d="M48.1789 76.9221C48.7771 76.5482 49.1758 76.517 49.3005 76.5482V77.7632C44.4091 81.533 34.4209 89.1285 33.5984 89.3528C32.7759 89.5771 32.8195 89.0101 32.9442 88.6986C37.7732 84.9288 47.5807 77.2959 48.1789 76.9221Z" fill="#D798FF"/>
<path d="M51.8211 76.9221C51.2229 76.5482 50.8242 76.517 50.6995 76.5482V77.7632C55.5909 81.533 65.5791 89.1285 66.4016 89.3528C67.2241 89.5771 67.1805 89.0101 67.0558 88.6986C62.2268 84.9288 52.4193 77.2959 51.8211 76.9221Z" fill="#D798FF"/>
<path d="M52.6595 76.5491C52.8838 76.4743 53.4384 76.5179 53.6876 76.5491C54.4977 76.6737 56.3234 76.9417 57.1458 77.0164C57.9683 77.0912 61.3518 77.0476 62.9406 77.0164L62.9407 78.5119C62.2241 78.4807 60.3423 78.5119 58.5478 78.5119C56.3047 78.5119 53.1268 78.2315 52.8464 78.0445C52.4576 77.7853 52.3791 76.6426 52.6595 76.5491Z" fill="#6F7EF7"/>
<path d="M90.8906 63.9297C91.414 64.5279 94.5357 65.612 96.0312 66.0794V66.9206C94.8348 66.9206 92.1057 65.6744 90.8906 65.0513V63.9297Z" fill="#D798FF"/>
<path d="M103.13 63.9297C102.307 64.4531 98.6745 65.6432 96.9609 66.1728V67.2009C97.771 66.9517 99.5593 66.3972 100.232 66.1728C100.905 65.9485 103.503 64.5839 104.718 63.9297H103.13Z" fill="#D798FF"/>
<path d="M106.308 62.8108C106.308 62.3622 105.997 62.25 105.841 62.25C105.187 62.3435 102.532 62.5865 97.1489 62.8108C91.7653 63.0351 88.1763 62.5304 87.0547 62.25V64.1193C93.0987 64.1504 105.318 63.9137 105.841 63.8389C106.495 63.7454 106.308 63.3716 106.308 62.8108Z" fill="#6F7EF7"/>
<path d="M106.183 56.6297C106.183 57.2197 105.928 57.2443 105.801 57.1828H86.5859V55.5234H105.801C106.374 55.5234 106.183 55.8922 106.183 56.6297Z" fill="#6F7EF7"/>
<path d="M87.2422 62.9981V57.0163C89.2361 56.8917 95.0184 57.0163 97.3364 57.0163L105.842 57.0163V62.4373C103.754 62.6242 98.9813 62.9981 96.5886 62.9981H87.2422Z" fill="url(#paint2_linear_2755_19239)"/>
<path d="M53.2188 57.0189H53.6861C57.8733 56.645 68.7027 57.1123 73.594 57.3927V55.5234H53.2188V57.0189Z" fill="#6F7EF7"/>
<path d="M57.3375 90.9453L58.1787 91.2257L56.2159 97.0205L55.2812 96.927L57.3375 90.9453Z" fill="#D798FF"/>
<path d="M58.0859 88.7922L60.2356 82.1562L61.1703 82.5301L58.9271 89.0726L58.0859 88.7922Z" fill="#D798FF"/>
<path d="M104.694 90.9453L103.853 91.2257L105.815 97.0205L106.75 96.927L104.694 90.9453Z" fill="#D798FF"/>
<path d="M103.945 88.7922L101.796 82.1562L100.861 82.5301L103.104 89.0726L103.945 88.7922Z" fill="#D798FF"/>
<path d="M71.6311 42.246C68.1169 42.1712 64.6836 43.2118 63.4062 43.7414V55.0507C63.8736 54.6768 66.1728 53.8917 71.6311 53.7422C77.0895 53.5926 80.0118 54.3029 80.7907 54.6768V43.7414C79.2018 43.2741 75.1454 42.3208 71.6311 42.246Z" fill="url(#paint3_linear_2755_19239)"/>
<ellipse cx="72.0985" cy="56.551" rx="8.6922" ry="1.21504" fill="#D798FF"/>
<path d="M63.1318 57.0139C62.9075 56.7148 63.2253 56.5154 63.4122 56.4531C63.6908 57.4744 68.8571 57.6656 71.3994 57.7597L71.4502 57.7616C73.9737 57.8551 79.3012 57.2943 79.9554 57.1074C80.4788 56.9578 80.7343 56.7335 80.7966 56.6401C80.7966 57.1074 80.7032 57.0139 80.3293 57.2943C79.9554 57.5747 77.245 58.3224 72.0109 58.4159C66.7769 58.5093 63.4122 57.3878 63.1318 57.0139Z" fill="#471B62"/>
<path d="M63.4137 57.4809C62.8155 57.1819 62.9152 56.8579 63.0398 56.7332C63.4137 57.7613 68.553 58.3221 71.919 58.3221C75.2837 58.3221 79.3962 57.7613 80.3308 57.294C80.929 56.9949 80.7981 56.5463 80.7047 56.3594C81.2281 56.6585 81.172 57.1382 81.0785 57.294C80.2374 58.1352 78.1811 58.8829 71.919 58.8829C65.6569 58.8829 64.1614 57.8548 63.4137 57.4809Z" fill="#6E3393"/>
<path d="M64.2488 56.0823C63.3516 56.3067 63.0026 56.8612 62.9403 57.1104C62.4917 55.9141 62.9403 55.2723 63.2207 55.1477C63.9684 54.6181 66.8284 53.5775 72.2868 53.6523C79.1097 53.7457 80.6986 54.5869 81.1659 54.9608C81.6332 55.3346 81.5398 55.9889 81.4463 56.7366C81.3715 57.3348 81.1036 57.422 80.979 57.3908C81.2781 56.9422 80.9167 56.5808 80.6986 56.4562C79.8574 55.7085 75.1842 55.4281 72.1933 55.3346C69.2024 55.2412 65.3704 55.8019 64.2488 56.0823Z" fill="#AF4DEC"/>
<path d="M62.6588 44.4892C62.6588 45.0873 63.2196 45.1123 63.5 45.0499L63.4066 43.9284C65.9301 42.9937 68.3602 42.5264 71.8184 42.4329C74.5849 42.3582 78.9528 43.3987 80.791 43.9284V45.6107C81.4452 45.6107 81.6321 44.4892 81.4452 43.3676C81.2583 42.246 77.803 40.9375 71.8184 40.9375C65.8366 40.9375 63.3131 42.4329 62.9392 42.8068C62.5654 43.1806 62.6588 43.7414 62.6588 44.4892Z" fill="#AF4DEC"/>
<g filter="url(#filter2_d_2755_19239)">
<path d="M71.7012 43.0938C71.2526 43.0938 71.1015 43.3274 71.0703 43.4209C71.0703 44.3867 71.103 46.2529 71.7012 46.1781C72.2994 46.1033 72.3788 44.2932 72.2854 43.4209C72.2854 43.2963 72.1498 43.0938 71.7012 43.0938Z" fill="white" fill-opacity="0.8" shape-rendering="crispEdges"/>
</g>
<g filter="url(#filter3_d_2755_19239)">
<rect x="71.4453" y="41.125" width="0.560787" height="2.05622" fill="white" fill-opacity="0.8" shape-rendering="crispEdges"/>
</g>
<g filter="url(#filter4_d_2755_19239)">
<path d="M57.4981 57.4844C57.0494 57.4844 56.8983 57.718 56.8672 57.8115C56.8672 58.7773 56.8999 60.6435 57.4981 60.5687C58.0962 60.4939 58.1757 58.6838 58.0822 57.8115C58.0822 57.6869 57.9467 57.4844 57.4981 57.4844Z" fill="white" fill-opacity="0.8" shape-rendering="crispEdges"/>
</g>
<g filter="url(#filter5_d_2755_19239)">
<rect x="57.2422" y="55.5234" width="0.560787" height="2.05622" fill="white" fill-opacity="0.8" shape-rendering="crispEdges"/>
</g>
<g filter="url(#filter6_d_2755_19239)">
<rect x="52.75" y="55.7109" width="0.560787" height="2.05622" fill="white" fill-opacity="0.8" shape-rendering="crispEdges"/>
</g>
<g filter="url(#filter7_d_2755_19239)">
<path d="M57.1113 76.1797C57.5599 76.1797 57.711 75.946 57.7422 75.8526C57.7422 74.8868 57.7095 73.0206 57.1113 73.0954C56.5131 73.1701 56.4337 74.9802 56.5271 75.8526C56.5271 75.9772 56.6627 76.1797 57.1113 76.1797Z" fill="white" fill-opacity="0.8" shape-rendering="crispEdges"/>
</g>
<rect x="57.3672" y="78.1406" width="0.560787" height="2.05622" transform="rotate(-180 57.3672 78.1406)" fill="white" fill-opacity="0.8"/>
<g filter="url(#filter8_d_2755_19239)">
<path d="M71.8769 53C72.3256 53 72.4767 52.7663 72.5078 52.6729C72.5078 51.7071 72.4751 49.8409 71.8769 49.9157C71.2788 49.9904 71.1993 51.8005 71.2928 52.6729C71.2928 52.7975 71.4283 53 71.8769 53Z" fill="white" fill-opacity="0.8" shape-rendering="crispEdges"/>
</g>
<g filter="url(#filter9_d_2755_19239)">
<rect x="72.1328" y="54.9609" width="0.560787" height="2.05622" transform="rotate(-180 72.1328 54.9609)" fill="white" fill-opacity="0.8" shape-rendering="crispEdges"/>
</g>
<g filter="url(#filter10_d_2755_19239)">
<path d="M64.0616 45.2386C63.9868 44.8647 63.6566 44.7713 63.5008 44.7713H63.4073C63.183 44.744 63.0646 44.8222 63.0335 44.8647C63.0023 45.0205 62.9587 45.5377 63.0335 46.3602C63.1082 47.1826 63.75 47.326 64.0616 47.2948C64.0927 46.7652 64.1364 45.6124 64.0616 45.2386Z" fill="white" fill-opacity="0.8" shape-rendering="crispEdges"/>
</g>
<g filter="url(#filter11_d_2755_19239)">
<path d="M53.6397 58.0511C53.5649 57.6772 53.2347 57.5838 53.0789 57.5838H52.9854C52.7611 57.5565 52.6427 57.6347 52.6116 57.6772C52.5804 57.833 52.5368 58.3502 52.6116 59.1727C52.6864 59.9951 53.3282 60.1385 53.6397 60.1073C53.6709 59.5777 53.7145 58.4249 53.6397 58.0511Z" fill="white" fill-opacity="0.8" shape-rendering="crispEdges"/>
</g>
<g filter="url(#filter12_d_2755_19239)">
<rect width="0.560787" height="2.05622" transform="matrix(1 0 0 -1 52.75 77.6797)" fill="white" fill-opacity="0.8"/>
<path d="M53.6319 75.3395C53.5571 75.7134 53.2269 75.8069 53.0711 75.8069H52.9776C52.7533 75.8341 52.6349 75.7559 52.6038 75.7134C52.5726 75.5576 52.529 75.0405 52.6038 74.218C52.6786 73.3955 53.3203 73.2522 53.6319 73.2833C53.6631 73.813 53.7067 74.9657 53.6319 75.3395Z" fill="white" fill-opacity="0.8"/>
</g>
<g filter="url(#filter13_d_2755_19239)">
<path d="M64.0616 53.0974C63.9868 53.4712 63.6566 53.5647 63.5008 53.5647L63.4073 53.5647C63.183 53.5919 63.0646 53.5137 63.0335 53.4712C63.0023 53.3154 62.9587 52.7983 63.0335 51.9758C63.1082 51.1533 63.75 51.01 64.0616 51.0411C64.0927 51.5708 64.1364 52.7235 64.0616 53.0974Z" fill="white" fill-opacity="0.8" shape-rendering="crispEdges"/>
</g>
<path d="M90.5597 42.0971C93.6319 42.0317 96.6333 42.9414 97.75 43.4044V53.2911C97.3415 52.9643 95.3314 52.2779 90.5597 52.1472C85.7879 52.0165 83.2332 52.6374 82.5523 52.9643V43.4044C83.9413 42.9959 87.4875 42.1625 90.5597 42.0971Z" fill="url(#paint4_linear_2755_19239)"/>
<ellipse rx="7.59886" ry="1.06221" transform="matrix(-1 0 0 1 90.1511 54.6013)" fill="#D798FF"/>
<path d="M97.9951 55.0059C98.1912 54.7444 97.9133 54.5701 97.7499 54.5156C97.5064 55.4084 92.99 55.5756 90.7675 55.6579L90.723 55.6595C88.5169 55.7412 83.8596 55.251 83.2876 55.0876C82.83 54.9568 82.6067 54.7607 82.5522 54.679C82.5522 55.0876 82.6339 55.0059 82.9608 55.251C83.2876 55.4961 85.6571 56.1498 90.2328 56.2315C94.8085 56.3132 97.7499 55.3327 97.9951 55.0059Z" fill="#471B62"/>
<path d="M97.7546 55.418C98.2775 55.1565 98.1904 54.8733 98.0814 54.7643C97.7546 55.6631 93.2606 56.1534 90.3191 56.2351C87.3776 56.3168 83.7825 55.6631 82.9654 55.2546C82.4424 54.9931 82.5568 54.6009 82.6385 54.4375C82.181 54.699 82.23 55.1184 82.3117 55.2546C83.0471 55.99 84.8447 56.6436 90.3191 56.6436C95.7936 56.6436 97.1009 55.7448 97.7546 55.418Z" fill="#6E3393"/>
<path d="M97.0178 54.1903C97.8022 54.3864 98.1073 54.8712 98.1617 55.089C98.5539 54.0432 98.1617 53.4821 97.9166 53.3732C97.263 52.9102 94.7627 52.0005 89.9909 52.0658C84.0262 52.1476 82.6372 52.8829 82.2286 53.2098C81.8201 53.5366 81.9018 54.1085 81.9835 54.7622C82.0489 55.2851 82.2831 55.3614 82.3921 55.3342C82.1306 54.942 82.4465 54.626 82.6372 54.5171C83.3726 53.8634 87.458 53.6183 90.0726 53.5366C92.6873 53.4549 96.0373 53.9451 97.0178 54.1903Z" fill="#AF4DEC"/>
<path d="M98.405 44.0806C98.405 44.6035 97.9147 44.6253 97.6696 44.5708L97.7513 43.5903C95.5452 42.7732 93.4208 42.3647 90.3976 42.283C87.979 42.2176 84.1605 43.1273 82.5536 43.5903V45.0611C81.9816 45.0611 81.8182 44.0806 81.9816 43.1001C82.145 42.1196 85.1682 41.3025 90.3976 41.1391C95.6269 40.9757 97.833 42.283 98.1599 42.6098C98.4867 42.9367 98.405 43.4269 98.405 44.0806Z" fill="#AF4DEC"/>
<g filter="url(#filter14_d_2755_19239)">
<path d="M90.5032 42.8359C90.8954 42.8359 91.0275 43.0402 91.0547 43.1219C91.0547 43.9662 91.0261 45.5977 90.5032 45.5323C89.9802 45.4669 89.9108 43.8845 89.9925 43.1219C89.9925 43.013 90.111 42.8359 90.5032 42.8359Z" fill="white" fill-opacity="0.8" shape-rendering="crispEdges"/>
</g>
<g filter="url(#filter15_d_2755_19239)">
<rect width="0.490249" height="1.79758" transform="matrix(-1 0 0 1 90.7266 41.1172)" fill="white" fill-opacity="0.8" shape-rendering="crispEdges"/>
</g>
<g filter="url(#filter16_d_2755_19239)">
<path d="M90.3484 51.5C89.9562 51.5 89.8241 51.2957 89.7969 51.214C89.7969 50.3697 89.8255 48.7383 90.3484 48.8036C90.8713 48.869 90.9408 50.4514 90.8591 51.214C90.8591 51.323 90.7406 51.5 90.3484 51.5Z" fill="white" fill-opacity="0.8" shape-rendering="crispEdges"/>
</g>
<g filter="url(#filter17_d_2755_19239)">
<rect width="0.490249" height="1.79758" transform="matrix(1 -8.74228e-08 -8.74228e-08 -1 90.125 53.2109)" fill="white" fill-opacity="0.8" shape-rendering="crispEdges"/>
</g>
<g filter="url(#filter18_d_2755_19239)">
<path d="M97.1823 44.7103C97.2477 44.3835 97.5364 44.3018 97.6726 44.3018H97.7543C97.9504 44.278 98.0539 44.3463 98.0811 44.3835C98.1083 44.5197 98.1465 44.9718 98.0811 45.6908C98.0157 46.4099 97.4547 46.5352 97.1823 46.5079C97.1551 46.0449 97.1169 45.0372 97.1823 44.7103Z" fill="white" fill-opacity="0.8" shape-rendering="crispEdges"/>
</g>
<g filter="url(#filter19_d_2755_19239)">
<path d="M97.1823 51.5787C97.2477 51.9055 97.5364 51.9873 97.6726 51.9873L97.7543 51.9873C97.9504 52.0111 98.0539 51.9427 98.0811 51.9055C98.1083 51.7694 98.1465 51.3173 98.0811 50.5982C98.0157 49.8792 97.4547 49.7539 97.1823 49.7811C97.1551 50.2441 97.1169 51.2519 97.1823 51.5787Z" fill="white" fill-opacity="0.8" shape-rendering="crispEdges"/>
</g>
<path d="M77.616 59.4442L77.2422 61.1265H85.1867C85.1244 60.6904 84.9811 59.7433 84.9063 59.4442C84.8315 59.1451 84.5636 59.0703 84.439 59.0703H77.9899C77.6908 59.0703 77.616 59.3196 77.616 59.4442Z" fill="#D798FF"/>
<g filter="url(#filter20_d_2755_19239)">
<rect x="78.5469" y="52.1562" width="1.3085" height="6.35559" fill="#D798FF"/>
</g>
<g filter="url(#filter21_d_2755_19239)">
<rect x="82.6641" y="52.1562" width="1.3085" height="6.72945" fill="#D798FF"/>
</g>
<rect x="78.3594" y="49.9141" width="1.68236" height="2.43008" fill="#AF4DEC"/>
<rect x="82.4766" y="49.9141" width="1.68236" height="2.43008" fill="#AF4DEC"/>
<path d="M80.1419 47.2969H77.9922V50.0073H80.1419C80.3288 49.727 80.7214 49.297 80.7961 48.6988C80.8709 48.1007 80.3911 47.4215 80.1419 47.2969Z" fill="#D798FF"/>
<ellipse cx="77.8953" cy="48.6054" rx="1.02811" ry="1.3085" fill="#AF4DEC"/>
<path d="M82.2019 47.2969H84.3516V50.0073H82.2019C82.0149 49.727 81.6224 49.297 81.5476 48.6988C81.4729 48.1007 81.9526 47.4215 82.2019 47.2969Z" fill="#D798FF"/>
<ellipse rx="1.02811" ry="1.3085" transform="matrix(-1 0 0 1 84.4485 48.6054)" fill="#AF4DEC"/>
<g filter="url(#filter22_d_2755_19239)">
<rect x="93.1328" y="58.3281" width="1.49543" height="3.92551" fill="white" fill-opacity="0.8" shape-rendering="crispEdges"/>
</g>
<g filter="url(#filter23_d_2755_19239)">
<rect width="0.747716" height="1.49543" transform="matrix(1 0 0 -1 93.5078 63.7422)" fill="white" fill-opacity="0.8" shape-rendering="crispEdges"/>
</g>
<g filter="url(#filter24_d_2755_19239)">
<rect width="0.747716" height="1.68236" transform="matrix(1 0 0 -1 93.5078 58.3281)" fill="white" fill-opacity="0.8" shape-rendering="crispEdges"/>
</g>
<g filter="url(#filter25_d_2755_19239)">
<rect x="101.352" y="58.1406" width="1.49543" height="3.92551" fill="white" fill-opacity="0.8" shape-rendering="crispEdges"/>
</g>
<g filter="url(#filter26_d_2755_19239)">
<rect width="0.747716" height="1.49543" transform="matrix(1 0 0 -1 101.727 63.5625)" fill="white" fill-opacity="0.8" shape-rendering="crispEdges"/>
</g>
<g filter="url(#filter27_d_2755_19239)">
<rect width="0.747716" height="1.68236" transform="matrix(1 0 0 -1 101.727 58.1406)" fill="white" fill-opacity="0.8" shape-rendering="crispEdges"/>
</g>
<g filter="url(#filter28_d_2755_19239)">
<rect width="0.747716" height="1.68236" transform="matrix(1 0 0 -1 106.219 57.9531)" fill="white" fill-opacity="0.8" shape-rendering="crispEdges"/>
</g>
<g filter="url(#filter29_d_2755_19239)">
<rect width="0.747716" height="1.68236" transform="matrix(1 0 0 -1 106.219 63.1875)" fill="white" fill-opacity="0.8" shape-rendering="crispEdges"/>
</g>
<g filter="url(#filter30_d_2755_19239)">
<rect x="86.5859" y="58.1406" width="1.49543" height="3.92551" fill="white" fill-opacity="0.8" shape-rendering="crispEdges"/>
</g>
<g filter="url(#filter31_d_2755_19239)">
<rect x="105.844" y="57.9531" width="1.49543" height="3.55165" fill="white" fill-opacity="0.8" shape-rendering="crispEdges"/>
</g>
<path d="M95.9375 69.2801V64.1172H97.0591V71.0336L95.9375 69.2801Z" fill="#D798FF"/>
<rect x="49.0156" y="53.0938" width="1.49543" height="9.53339" fill="#D798FF"/>
<rect x="49.0156" y="38.5078" width="1.49543" height="12.5243" fill="#D798FF"/>
<rect x="49.2031" y="65.0547" width="1.49543" height="12.8981" fill="#D798FF"/>
<rect x="49.2031" y="77.8984" width="1.49543" height="17.0105" transform="rotate(-5.09841 49.2031 77.8984)" fill="#D798FF"/>
<ellipse cx="49.6688" cy="36.2698" rx="1.02811" ry="0.373858" transform="rotate(13.6383 49.6688 36.2698)" fill="#471B62"/>
<g filter="url(#filter32_d_2755_19239)">
<rect width="0.747716" height="1.68236" transform="matrix(1 0 0 -1 86.9609 58.1406)" fill="white" fill-opacity="0.8" shape-rendering="crispEdges"/>
</g>
<path d="M75.933 61.2295C75.1162 61.4075 75.4275 61.9329 75.6853 62.1733C80.3645 61.1877 84.6803 61.7671 86.4401 62.1736C86.6226 62.0426 87.1059 61.6098 86.7878 61.4133C86.2144 61.0592 83.6696 60.493 81.241 60.5774C78.8124 60.6618 76.954 61.0069 75.933 61.2295Z" fill="#AF4DEC"/>
<circle cx="81.076" cy="79.7244" r="18.5994" fill="url(#paint5_linear_2755_19239)"/>
<circle cx="81.0728" cy="79.729" r="17.104" fill="white" fill-opacity="0.6"/>
<rect x="78.1719" y="58.3281" width="2.05622" height="0.747716" fill="#AF4DEC"/>
<rect x="82.2891" y="58.3281" width="2.05622" height="0.747716" fill="#AF4DEC"/>
<path d="M50.8843 62.5312H48.828C48.6785 62.606 48.7034 62.9986 48.7346 63.1855C48.7969 63.684 48.9402 64.7183 49.015 64.8679C49.0897 65.0174 49.2954 65.1171 49.3888 65.1483H50.23C50.6039 65.1483 50.7596 64.9613 50.7908 64.8679C50.8531 64.4629 50.9964 63.5594 51.0712 63.1855C51.146 62.8116 50.9777 62.5936 50.8843 62.5312Z" fill="#AF4DEC"/>
<path d="M32.2854 89.6358C32.5097 89.3367 32.815 89.3242 32.9396 89.3554C33.7621 89.3554 33.6562 90.7885 33.5004 91.5051C33.3758 91.7232 32.9209 92.178 32.0984 92.2528C31.2759 92.3276 31.0703 91.7855 31.0703 91.5051C31.3819 91.0066 32.061 89.9349 32.2854 89.6358Z" fill="#AF4DEC"/>
<path d="M61.5426 79.4452H62.5707C62.5707 80.492 62.6953 81.8752 62.7576 82.436C62.309 82.436 61.8853 81.8129 61.7295 81.5014L61.2622 82.623L60.1406 82.1556C60.3276 81.5014 60.664 80.6041 60.8883 80.0059C61.1127 79.4078 61.418 79.3828 61.5426 79.4452Z" fill="#AF4DEC"/>
<rect x="57.8281" y="88.6094" width="1.48725" height="2.45093" transform="rotate(17.2754 57.8281 88.6094)" fill="#AF4DEC"/>
<path d="M100.489 79.4452H99.4605C99.4605 80.492 99.3359 81.8752 99.2736 82.436C99.7222 82.436 100.146 81.8129 100.302 81.5014L100.769 82.623L101.891 82.1556C101.704 81.5014 101.367 80.6041 101.143 80.0059C100.919 79.4078 100.613 79.3828 100.489 79.4452Z" fill="#AF4DEC"/>
<rect width="1.48725" height="2.45093" transform="matrix(-0.954889 0.296964 0.296964 0.954889 104.203 88.6094)" fill="#AF4DEC"/>
<path d="M50.7061 50.6641H48.7418C48.6126 50.7388 48.6341 51.1314 48.6611 51.3183C48.7149 51.8168 48.8388 52.8511 48.9034 53.0007C48.968 53.1502 49.1458 53.2499 49.4135 53.2811H50.1406C50.4637 53.2811 50.5984 53.0941 50.6253 53.0007C50.6792 52.5957 50.803 51.6922 50.8677 51.3183C50.9323 50.9445 50.7869 50.7264 50.7061 50.6641Z" fill="#AF4DEC"/>
<path d="M49.0156 38.5085H50.5111L49.8568 38.2281C49.4082 37.929 49.6699 36.7327 49.8568 36.1719H49.5764L49.0156 38.5085Z" fill="#471B62"/>
<path d="M108.903 51.8771V52.8117H110.305V51.8771C111.053 51.578 111.115 50.5063 111.053 50.0078H108.155C108.081 50.9051 108.623 51.6279 108.903 51.8771Z" fill="#AF4DEC"/>
<path d="M110.673 62.1562H108.617C108.468 62.231 108.492 62.6236 108.524 62.8105C108.586 63.309 108.729 64.3433 108.804 64.4929C108.879 64.6424 109.084 64.7421 109.178 64.7733H110.019C110.393 64.7733 110.549 64.5863 110.58 64.4929C110.642 64.0879 110.785 63.1844 110.86 62.8105C110.935 62.4366 110.767 62.2186 110.673 62.1562Z" fill="#AF4DEC"/>
<path d="M111.192 75.2556C110.83 74.65 110.49 74.4403 110.365 74.4112L109.81 75.4923C112.442 81.0787 117.864 92.3952 118.493 92.9702C119.123 93.5451 119.343 93.0206 119.374 92.6866C116.797 87.1286 111.554 75.8613 111.192 75.2556Z" fill="#D798FF"/>
<path d="M108.214 75.2556C108.576 74.65 108.916 74.4403 109.042 74.4112L109.596 75.4923C106.964 81.0787 101.542 92.3952 100.913 92.9702C100.283 93.5451 100.063 93.0206 100.032 92.6866C102.609 87.1286 107.853 75.8613 108.214 75.2556Z" fill="#D798FF"/>
<rect x="108.805" y="52.7188" width="1.49543" height="9.53339" fill="#D798FF"/>
<rect x="108.992" y="64.6797" width="1.49543" height="12.8981" fill="#D798FF"/>
<rect x="108.922" y="76.6875" width="1.49543" height="17.8509" transform="rotate(-5.09841 108.922 76.6875)" fill="#D798FF"/>
<rect x="109.18" y="48.0391" width="0.747716" height="0.747716" fill="#471B62"/>
<path d="M99.644 48.1328L119.365 48.1328C119.963 47.9085 119.614 47.6655 119.365 47.572C117.994 47.5409 115.01 47.4786 114.038 47.4786C112.823 47.4786 112.449 47.1047 111.888 46.8243C111.327 46.5439 110.206 46.4504 109.271 46.4504C108.336 46.4504 107.215 46.4504 106.654 46.8243C105.906 47.3228 105.345 47.4786 104.598 47.4786L99.644 47.572C99.0458 47.7963 99.3948 48.0393 99.644 48.1328Z" fill="url(#paint6_linear_2755_19239)"/>
<path d="M119.372 48.6953H99.6506C99.0524 48.9196 99.4014 49.1626 99.6506 49.2561C101.021 49.2873 104.006 49.3496 104.978 49.3496C106.193 49.3496 106.567 49.7234 107.128 50.0038C107.689 50.2842 108.81 50.3777 109.745 50.3777C110.679 50.3777 111.801 50.3777 112.362 50.0038C113.11 49.5053 113.67 49.3496 114.418 49.3496L119.372 49.2561C119.97 49.0318 119.621 48.7888 119.372 48.6953Z" fill="url(#paint7_linear_2755_19239)"/>
</g>
<defs>
<filter id="filter0_d_2755_19239" x="65.0156" y="57.7656" width="9.25" height="11.0859" filterUnits="userSpaceOnUse" color-interpolation-filters="sRGB">
<feFlood flood-opacity="0" result="BackgroundImageFix"/>
<feColorMatrix in="SourceAlpha" type="matrix" values="0 0 0 0 0 0 0 0 0 0 0 0 0 0 0 0 0 0 127 0" result="hardAlpha"/>
<feOffset dy="4"/>
<feGaussianBlur stdDeviation="2"/>
<feComposite in2="hardAlpha" operator="out"/>
<feColorMatrix type="matrix" values="0 0 0 0 0 0 0 0 0 0 0 0 0 0 0 0 0 0 0.1 0"/>
<feBlend mode="normal" in2="BackgroundImageFix" result="effect1_dropShadow_2755_19239"/>
<feBlend mode="normal" in="SourceGraphic" in2="effect1_dropShadow_2755_19239" result="shape"/>
</filter>
<filter id="filter1_d_2755_19239" x="69.5078" y="57.7656" width="9.10938" height="10.5312" filterUnits="userSpaceOnUse" color-interpolation-filters="sRGB">
<feFlood flood-opacity="0" result="BackgroundImageFix"/>
<feColorMatrix in="SourceAlpha" type="matrix" values="0 0 0 0 0 0 0 0 0 0 0 0 0 0 0 0 0 0 127 0" result="hardAlpha"/>
<feOffset dy="4"/>
<feGaussianBlur stdDeviation="2"/>
<feComposite in2="hardAlpha" operator="out"/>
<feColorMatrix type="matrix" values="0 0 0 0 0 0 0 0 0 0 0 0 0 0 0 0 0 0 0.1 0"/>
<feBlend mode="normal" in2="BackgroundImageFix" result="effect1_dropShadow_2755_19239"/>
<feBlend mode="normal" in="SourceGraphic" in2="effect1_dropShadow_2755_19239" result="shape"/>
</filter>
<filter id="filter2_d_2755_19239" x="67.0703" y="43.0938" width="9.25" height="11.0859" filterUnits="userSpaceOnUse" color-interpolation-filters="sRGB">
<feFlood flood-opacity="0" result="BackgroundImageFix"/>
<feColorMatrix in="SourceAlpha" type="matrix" values="0 0 0 0 0 0 0 0 0 0 0 0 0 0 0 0 0 0 127 0" result="hardAlpha"/>
<feOffset dy="4"/>
<feGaussianBlur stdDeviation="2"/>
<feComposite in2="hardAlpha" operator="out"/>
<feColorMatrix type="matrix" values="0 0 0 0 0 0 0 0 0 0 0 0 0 0 0 0 0 0 0.1 0"/>
<feBlend mode="normal" in2="BackgroundImageFix" result="effect1_dropShadow_2755_19239"/>
<feBlend mode="normal" in="SourceGraphic" in2="effect1_dropShadow_2755_19239" result="shape"/>
</filter>
<filter id="filter3_d_2755_19239" x="67.4453" y="41.125" width="8.5625" height="10.0547" filterUnits="userSpaceOnUse" color-interpolation-filters="sRGB">
<feFlood flood-opacity="0" result="BackgroundImageFix"/>
<feColorMatrix in="SourceAlpha" type="matrix" values="0 0 0 0 0 0 0 0 0 0 0 0 0 0 0 0 0 0 127 0" result="hardAlpha"/>
<feOffset dy="4"/>
<feGaussianBlur stdDeviation="2"/>
<feComposite in2="hardAlpha" operator="out"/>
<feColorMatrix type="matrix" values="0 0 0 0 0 0 0 0 0 0 0 0 0 0 0 0 0 0 0.1 0"/>
<feBlend mode="normal" in2="BackgroundImageFix" result="effect1_dropShadow_2755_19239"/>
<feBlend mode="normal" in="SourceGraphic" in2="effect1_dropShadow_2755_19239" result="shape"/>
</filter>
<filter id="filter4_d_2755_19239" x="52.8672" y="57.4844" width="9.25" height="11.0859" filterUnits="userSpaceOnUse" color-interpolation-filters="sRGB">
<feFlood flood-opacity="0" result="BackgroundImageFix"/>
<feColorMatrix in="SourceAlpha" type="matrix" values="0 0 0 0 0 0 0 0 0 0 0 0 0 0 0 0 0 0 127 0" result="hardAlpha"/>
<feOffset dy="4"/>
<feGaussianBlur stdDeviation="2"/>
<feComposite in2="hardAlpha" operator="out"/>
<feColorMatrix type="matrix" values="0 0 0 0 0 0 0 0 0 0 0 0 0 0 0 0 0 0 0.1 0"/>
<feBlend mode="normal" in2="BackgroundImageFix" result="effect1_dropShadow_2755_19239"/>
<feBlend mode="normal" in="SourceGraphic" in2="effect1_dropShadow_2755_19239" result="shape"/>
</filter>
<filter id="filter5_d_2755_19239" x="53.2422" y="55.5234" width="8.5625" height="10.0547" filterUnits="userSpaceOnUse" color-interpolation-filters="sRGB">
<feFlood flood-opacity="0" result="BackgroundImageFix"/>
<feColorMatrix in="SourceAlpha" type="matrix" values="0 0 0 0 0 0 0 0 0 0 0 0 0 0 0 0 0 0 127 0" result="hardAlpha"/>
<feOffset dy="4"/>
<feGaussianBlur stdDeviation="2"/>
<feComposite in2="hardAlpha" operator="out"/>
<feColorMatrix type="matrix" values="0 0 0 0 0 0 0 0 0 0 0 0 0 0 0 0 0 0 0.1 0"/>
<feBlend mode="normal" in2="BackgroundImageFix" result="effect1_dropShadow_2755_19239"/>
<feBlend mode="normal" in="SourceGraphic" in2="effect1_dropShadow_2755_19239" result="shape"/>
</filter>
<filter id="filter6_d_2755_19239" x="48.75" y="55.7109" width="8.5625" height="10.0547" filterUnits="userSpaceOnUse" color-interpolation-filters="sRGB">
<feFlood flood-opacity="0" result="BackgroundImageFix"/>
<feColorMatrix in="SourceAlpha" type="matrix" values="0 0 0 0 0 0 0 0 0 0 0 0 0 0 0 0 0 0 127 0" result="hardAlpha"/>
<feOffset dy="4"/>
<feGaussianBlur stdDeviation="2"/>
<feComposite in2="hardAlpha" operator="out"/>
<feColorMatrix type="matrix" values="0 0 0 0 0 0 0 0 0 0 0 0 0 0 0 0 0 0 0.1 0"/>
<feBlend mode="normal" in2="BackgroundImageFix" result="effect1_dropShadow_2755_19239"/>
<feBlend mode="normal" in="SourceGraphic" in2="effect1_dropShadow_2755_19239" result="shape"/>
</filter>
<filter id="filter7_d_2755_19239" x="52.4922" y="73.0938" width="9.25" height="11.0859" filterUnits="userSpaceOnUse" color-interpolation-filters="sRGB">
<feFlood flood-opacity="0" result="BackgroundImageFix"/>
<feColorMatrix in="SourceAlpha" type="matrix" values="0 0 0 0 0 0 0 0 0 0 0 0 0 0 0 0 0 0 127 0" result="hardAlpha"/>
<feOffset dy="4"/>
<feGaussianBlur stdDeviation="2"/>
<feComposite in2="hardAlpha" operator="out"/>
<feColorMatrix type="matrix" values="0 0 0 0 0 0 0 0 0 0 0 0 0 0 0 0 0 0 0.1 0"/>
<feBlend mode="normal" in2="BackgroundImageFix" result="effect1_dropShadow_2755_19239"/>
<feBlend mode="normal" in="SourceGraphic" in2="effect1_dropShadow_2755_19239" result="shape"/>
</filter>
<filter id="filter8_d_2755_19239" x="67.2578" y="49.9141" width="9.25" height="11.0859" filterUnits="userSpaceOnUse" color-interpolation-filters="sRGB">
<feFlood flood-opacity="0" result="BackgroundImageFix"/>
<feColorMatrix in="SourceAlpha" type="matrix" values="0 0 0 0 0 0 0 0 0 0 0 0 0 0 0 0 0 0 127 0" result="hardAlpha"/>
<feOffset dy="4"/>
<feGaussianBlur stdDeviation="2"/>
<feComposite in2="hardAlpha" operator="out"/>
<feColorMatrix type="matrix" values="0 0 0 0 0 0 0 0 0 0 0 0 0 0 0 0 0 0 0.1 0"/>
<feBlend mode="normal" in2="BackgroundImageFix" result="effect1_dropShadow_2755_19239"/>
<feBlend mode="normal" in="SourceGraphic" in2="effect1_dropShadow_2755_19239" result="shape"/>
</filter>
<filter id="filter9_d_2755_19239" x="67.5703" y="52.9062" width="8.5625" height="10.0547" filterUnits="userSpaceOnUse" color-interpolation-filters="sRGB">
<feFlood flood-opacity="0" result="BackgroundImageFix"/>
<feColorMatrix in="SourceAlpha" type="matrix" values="0 0 0 0 0 0 0 0 0 0 0 0 0 0 0 0 0 0 127 0" result="hardAlpha"/>
<feOffset dy="4"/>
<feGaussianBlur stdDeviation="2"/>
<feComposite in2="hardAlpha" operator="out"/>
<feColorMatrix type="matrix" values="0 0 0 0 0 0 0 0 0 0 0 0 0 0 0 0 0 0 0.1 0"/>
<feBlend mode="normal" in2="BackgroundImageFix" result="effect1_dropShadow_2755_19239"/>
<feBlend mode="normal" in="SourceGraphic" in2="effect1_dropShadow_2755_19239" result="shape"/>
</filter>
<filter id="filter10_d_2755_19239" x="58.9922" y="44.7656" width="9.10938" height="10.5312" filterUnits="userSpaceOnUse" color-interpolation-filters="sRGB">
<feFlood flood-opacity="0" result="BackgroundImageFix"/>
<feColorMatrix in="SourceAlpha" type="matrix" values="0 0 0 0 0 0 0 0 0 0 0 0 0 0 0 0 0 0 127 0" result="hardAlpha"/>
<feOffset dy="4"/>
<feGaussianBlur stdDeviation="2"/>
<feComposite in2="hardAlpha" operator="out"/>
<feColorMatrix type="matrix" values="0 0 0 0 0 0 0 0 0 0 0 0 0 0 0 0 0 0 0.1 0"/>
<feBlend mode="normal" in2="BackgroundImageFix" result="effect1_dropShadow_2755_19239"/>
<feBlend mode="normal" in="SourceGraphic" in2="effect1_dropShadow_2755_19239" result="shape"/>
</filter>
<filter id="filter11_d_2755_19239" x="48.5703" y="57.5781" width="9.10938" height="10.5312" filterUnits="userSpaceOnUse" color-interpolation-filters="sRGB">
<feFlood flood-opacity="0" result="BackgroundImageFix"/>
<feColorMatrix in="SourceAlpha" type="matrix" values="0 0 0 0 0 0 0 0 0 0 0 0 0 0 0 0 0 0 127 0" result="hardAlpha"/>
<feOffset dy="4"/>
<feGaussianBlur stdDeviation="2"/>
<feComposite in2="hardAlpha" operator="out"/>
<feColorMatrix type="matrix" values="0 0 0 0 0 0 0 0 0 0 0 0 0 0 0 0 0 0 0.1 0"/>
<feBlend mode="normal" in2="BackgroundImageFix" result="effect1_dropShadow_2755_19239"/>
<feBlend mode="normal" in="SourceGraphic" in2="effect1_dropShadow_2755_19239" result="shape"/>
</filter>
<filter id="filter12_d_2755_19239" x="48.5625" y="73.2812" width="9.10938" height="12.3984" filterUnits="userSpaceOnUse" color-interpolation-filters="sRGB">
<feFlood flood-opacity="0" result="BackgroundImageFix"/>
<feColorMatrix in="SourceAlpha" type="matrix" values="0 0 0 0 0 0 0 0 0 0 0 0 0 0 0 0 0 0 127 0" result="hardAlpha"/>
<feOffset dy="4"/>
<feGaussianBlur stdDeviation="2"/>
<feComposite in2="hardAlpha" operator="out"/>
<feColorMatrix type="matrix" values="0 0 0 0 0 0 0 0 0 0 0 0 0 0 0 0 0 0 0.1 0"/>
<feBlend mode="normal" in2="BackgroundImageFix" result="effect1_dropShadow_2755_19239"/>
<feBlend mode="normal" in="SourceGraphic" in2="effect1_dropShadow_2755_19239" result="shape"/>
</filter>
<filter id="filter13_d_2755_19239" x="58.9922" y="51.0391" width="9.10938" height="10.5312" filterUnits="userSpaceOnUse" color-interpolation-filters="sRGB">
<feFlood flood-opacity="0" result="BackgroundImageFix"/>
<feColorMatrix in="SourceAlpha" type="matrix" values="0 0 0 0 0 0 0 0 0 0 0 0 0 0 0 0 0 0 127 0" result="hardAlpha"/>
<feOffset dy="4"/>
<feGaussianBlur stdDeviation="2"/>
<feComposite in2="hardAlpha" operator="out"/>
<feColorMatrix type="matrix" values="0 0 0 0 0 0 0 0 0 0 0 0 0 0 0 0 0 0 0.1 0"/>
<feBlend mode="normal" in2="BackgroundImageFix" result="effect1_dropShadow_2755_19239"/>
<feBlend mode="normal" in="SourceGraphic" in2="effect1_dropShadow_2755_19239" result="shape"/>
</filter>
<filter id="filter14_d_2755_19239" x="85.9609" y="42.8359" width="9.09375" height="10.6953" filterUnits="userSpaceOnUse" color-interpolation-filters="sRGB">
<feFlood flood-opacity="0" result="BackgroundImageFix"/>
<feColorMatrix in="SourceAlpha" type="matrix" values="0 0 0 0 0 0 0 0 0 0 0 0 0 0 0 0 0 0 127 0" result="hardAlpha"/>
<feOffset dy="4"/>
<feGaussianBlur stdDeviation="2"/>
<feComposite in2="hardAlpha" operator="out"/>
<feColorMatrix type="matrix" values="0 0 0 0 0 0 0 0 0 0 0 0 0 0 0 0 0 0 0.1 0"/>
<feBlend mode="normal" in2="BackgroundImageFix" result="effect1_dropShadow_2755_19239"/>
<feBlend mode="normal" in="SourceGraphic" in2="effect1_dropShadow_2755_19239" result="shape"/>
</filter>
<filter id="filter15_d_2755_19239" x="86.2344" y="41.1172" width="8.49219" height="9.79688" filterUnits="userSpaceOnUse" color-interpolation-filters="sRGB">
<feFlood flood-opacity="0" result="BackgroundImageFix"/>
<feColorMatrix in="SourceAlpha" type="matrix" values="0 0 0 0 0 0 0 0 0 0 0 0 0 0 0 0 0 0 127 0" result="hardAlpha"/>
<feOffset dy="4"/>
<feGaussianBlur stdDeviation="2"/>
<feComposite in2="hardAlpha" operator="out"/>
<feColorMatrix type="matrix" values="0 0 0 0 0 0 0 0 0 0 0 0 0 0 0 0 0 0 0.1 0"/>
<feBlend mode="normal" in2="BackgroundImageFix" result="effect1_dropShadow_2755_19239"/>
<feBlend mode="normal" in="SourceGraphic" in2="effect1_dropShadow_2755_19239" result="shape"/>
</filter>
<filter id="filter16_d_2755_19239" x="85.7969" y="48.8047" width="9.09375" height="10.6953" filterUnits="userSpaceOnUse" color-interpolation-filters="sRGB">
<feFlood flood-opacity="0" result="BackgroundImageFix"/>
<feColorMatrix in="SourceAlpha" type="matrix" values="0 0 0 0 0 0 0 0 0 0 0 0 0 0 0 0 0 0 127 0" result="hardAlpha"/>
<feOffset dy="4"/>
<feGaussianBlur stdDeviation="2"/>
<feComposite in2="hardAlpha" operator="out"/>
<feColorMatrix type="matrix" values="0 0 0 0 0 0 0 0 0 0 0 0 0 0 0 0 0 0 0.1 0"/>
<feBlend mode="normal" in2="BackgroundImageFix" result="effect1_dropShadow_2755_19239"/>
<feBlend mode="normal" in="SourceGraphic" in2="effect1_dropShadow_2755_19239" result="shape"/>
</filter>
<filter id="filter17_d_2755_19239" x="86.125" y="51.4141" width="8.49219" height="9.79688" filterUnits="userSpaceOnUse" color-interpolation-filters="sRGB">
<feFlood flood-opacity="0" result="BackgroundImageFix"/>
<feColorMatrix in="SourceAlpha" type="matrix" values="0 0 0 0 0 0 0 0 0 0 0 0 0 0 0 0 0 0 127 0" result="hardAlpha"/>
<feOffset dy="4"/>
<feGaussianBlur stdDeviation="2"/>
<feComposite in2="hardAlpha" operator="out"/>
<feColorMatrix type="matrix" values="0 0 0 0 0 0 0 0 0 0 0 0 0 0 0 0 0 0 0.1 0"/>
<feBlend mode="normal" in2="BackgroundImageFix" result="effect1_dropShadow_2755_19239"/>
<feBlend mode="normal" in="SourceGraphic" in2="effect1_dropShadow_2755_19239" result="shape"/>
</filter>
<filter id="filter18_d_2755_19239" x="93.1484" y="44.2969" width="8.96875" height="10.2109" filterUnits="userSpaceOnUse" color-interpolation-filters="sRGB">
<feFlood flood-opacity="0" result="BackgroundImageFix"/>
<feColorMatrix in="SourceAlpha" type="matrix" values="0 0 0 0 0 0 0 0 0 0 0 0 0 0 0 0 0 0 127 0" result="hardAlpha"/>
<feOffset dy="4"/>
<feGaussianBlur stdDeviation="2"/>
<feComposite in2="hardAlpha" operator="out"/>
<feColorMatrix type="matrix" values="0 0 0 0 0 0 0 0 0 0 0 0 0 0 0 0 0 0 0.1 0"/>
<feBlend mode="normal" in2="BackgroundImageFix" result="effect1_dropShadow_2755_19239"/>
<feBlend mode="normal" in="SourceGraphic" in2="effect1_dropShadow_2755_19239" result="shape"/>
</filter>
<filter id="filter19_d_2755_19239" x="93.1484" y="49.7812" width="8.96875" height="10.2109" filterUnits="userSpaceOnUse" color-interpolation-filters="sRGB">
<feFlood flood-opacity="0" result="BackgroundImageFix"/>
<feColorMatrix in="SourceAlpha" type="matrix" values="0 0 0 0 0 0 0 0 0 0 0 0 0 0 0 0 0 0 127 0" result="hardAlpha"/>
<feOffset dy="4"/>
<feGaussianBlur stdDeviation="2"/>
<feComposite in2="hardAlpha" operator="out"/>
<feColorMatrix type="matrix" values="0 0 0 0 0 0 0 0 0 0 0 0 0 0 0 0 0 0 0.1 0"/>
<feBlend mode="normal" in2="BackgroundImageFix" result="effect1_dropShadow_2755_19239"/>
<feBlend mode="normal" in="SourceGraphic" in2="effect1_dropShadow_2755_19239" result="shape"/>
</filter>
<filter id="filter20_d_2755_19239" x="68.5469" y="42.1562" width="21.3047" height="26.3594" filterUnits="userSpaceOnUse" color-interpolation-filters="sRGB">
<feFlood flood-opacity="0" result="BackgroundImageFix"/>
<feColorMatrix in="SourceAlpha" type="matrix" values="0 0 0 0 0 0 0 0 0 0 0 0 0 0 0 0 0 0 127 0" result="hardAlpha"/>
<feOffset/>
<feGaussianBlur stdDeviation="5"/>
<feComposite in2="hardAlpha" operator="out"/>
<feColorMatrix type="matrix" values="0 0 0 0 0 0 0 0 0 0 0 0 0 0 0 0 0 0 0.3 0"/>
<feBlend mode="normal" in2="BackgroundImageFix" result="effect1_dropShadow_2755_19239"/>
<feBlend mode="normal" in="SourceGraphic" in2="effect1_dropShadow_2755_19239" result="shape"/>
</filter>
<filter id="filter21_d_2755_19239" x="72.6641" y="42.1562" width="21.3047" height="26.7266" filterUnits="userSpaceOnUse" color-interpolation-filters="sRGB">
<feFlood flood-opacity="0" result="BackgroundImageFix"/>
<feColorMatrix in="SourceAlpha" type="matrix" values="0 0 0 0 0 0 0 0 0 0 0 0 0 0 0 0 0 0 127 0" result="hardAlpha"/>
<feOffset/>
<feGaussianBlur stdDeviation="5"/>
<feComposite in2="hardAlpha" operator="out"/>
<feColorMatrix type="matrix" values="0 0 0 0 0 0 0 0 0 0 0 0 0 0 0 0 0 0 0.3 0"/>
<feBlend mode="normal" in2="BackgroundImageFix" result="effect1_dropShadow_2755_19239"/>
<feBlend mode="normal" in="SourceGraphic" in2="effect1_dropShadow_2755_19239" result="shape"/>
</filter>
<filter id="filter22_d_2755_19239" x="89.1328" y="58.3281" width="9.49219" height="11.9219" filterUnits="userSpaceOnUse" color-interpolation-filters="sRGB">
<feFlood flood-opacity="0" result="BackgroundImageFix"/>
<feColorMatrix in="SourceAlpha" type="matrix" values="0 0 0 0 0 0 0 0 0 0 0 0 0 0 0 0 0 0 127 0" result="hardAlpha"/>
<feOffset dy="4"/>
<feGaussianBlur stdDeviation="2"/>
<feComposite in2="hardAlpha" operator="out"/>
<feColorMatrix type="matrix" values="0 0 0 0 0 0 0 0 0 0 0 0 0 0 0 0 0 0 0.1 0"/>
<feBlend mode="normal" in2="BackgroundImageFix" result="effect1_dropShadow_2755_19239"/>
<feBlend mode="normal" in="SourceGraphic" in2="effect1_dropShadow_2755_19239" result="shape"/>
</filter>
<filter id="filter23_d_2755_19239" x="89.5078" y="62.25" width="8.75" height="9.49219" filterUnits="userSpaceOnUse" color-interpolation-filters="sRGB">
<feFlood flood-opacity="0" result="BackgroundImageFix"/>
<feColorMatrix in="SourceAlpha" type="matrix" values="0 0 0 0 0 0 0 0 0 0 0 0 0 0 0 0 0 0 127 0" result="hardAlpha"/>
<feOffset dy="4"/>
<feGaussianBlur stdDeviation="2"/>
<feComposite in2="hardAlpha" operator="out"/>
<feColorMatrix type="matrix" values="0 0 0 0 0 0 0 0 0 0 0 0 0 0 0 0 0 0 0.1 0"/>
<feBlend mode="normal" in2="BackgroundImageFix" result="effect1_dropShadow_2755_19239"/>
<feBlend mode="normal" in="SourceGraphic" in2="effect1_dropShadow_2755_19239" result="shape"/>
</filter>
<filter id="filter24_d_2755_19239" x="89.5078" y="56.6484" width="8.75" height="9.67969" filterUnits="userSpaceOnUse" color-interpolation-filters="sRGB">
<feFlood flood-opacity="0" result="BackgroundImageFix"/>
<feColorMatrix in="SourceAlpha" type="matrix" values="0 0 0 0 0 0 0 0 0 0 0 0 0 0 0 0 0 0 127 0" result="hardAlpha"/>
<feOffset dy="4"/>
<feGaussianBlur stdDeviation="2"/>
<feComposite in2="hardAlpha" operator="out"/>
<feColorMatrix type="matrix" values="0 0 0 0 0 0 0 0 0 0 0 0 0 0 0 0 0 0 0.1 0"/>
<feBlend mode="normal" in2="BackgroundImageFix" result="effect1_dropShadow_2755_19239"/>
<feBlend mode="normal" in="SourceGraphic" in2="effect1_dropShadow_2755_19239" result="shape"/>
</filter>
<filter id="filter25_d_2755_19239" x="97.3516" y="58.1406" width="9.49219" height="11.9219" filterUnits="userSpaceOnUse" color-interpolation-filters="sRGB">
<feFlood flood-opacity="0" result="BackgroundImageFix"/>
<feColorMatrix in="SourceAlpha" type="matrix" values="0 0 0 0 0 0 0 0 0 0 0 0 0 0 0 0 0 0 127 0" result="hardAlpha"/>
<feOffset dy="4"/>
<feGaussianBlur stdDeviation="2"/>
<feComposite in2="hardAlpha" operator="out"/>
<feColorMatrix type="matrix" values="0 0 0 0 0 0 0 0 0 0 0 0 0 0 0 0 0 0 0.1 0"/>
<feBlend mode="normal" in2="BackgroundImageFix" result="effect1_dropShadow_2755_19239"/>
<feBlend mode="normal" in="SourceGraphic" in2="effect1_dropShadow_2755_19239" result="shape"/>
</filter>
<filter id="filter26_d_2755_19239" x="97.7266" y="62.0703" width="8.75" height="9.49219" filterUnits="userSpaceOnUse" color-interpolation-filters="sRGB">
<feFlood flood-opacity="0" result="BackgroundImageFix"/>
<feColorMatrix in="SourceAlpha" type="matrix" values="0 0 0 0 0 0 0 0 0 0 0 0 0 0 0 0 0 0 127 0" result="hardAlpha"/>
<feOffset dy="4"/>
<feGaussianBlur stdDeviation="2"/>
<feComposite in2="hardAlpha" operator="out"/>
<feColorMatrix type="matrix" values="0 0 0 0 0 0 0 0 0 0 0 0 0 0 0 0 0 0 0.1 0"/>
<feBlend mode="normal" in2="BackgroundImageFix" result="effect1_dropShadow_2755_19239"/>
<feBlend mode="normal" in="SourceGraphic" in2="effect1_dropShadow_2755_19239" result="shape"/>
</filter>
<filter id="filter27_d_2755_19239" x="97.7266" y="56.4609" width="8.75" height="9.67969" filterUnits="userSpaceOnUse" color-interpolation-filters="sRGB">
<feFlood flood-opacity="0" result="BackgroundImageFix"/>
<feColorMatrix in="SourceAlpha" type="matrix" values="0 0 0 0 0 0 0 0 0 0 0 0 0 0 0 0 0 0 127 0" result="hardAlpha"/>
<feOffset dy="4"/>
<feGaussianBlur stdDeviation="2"/>
<feComposite in2="hardAlpha" operator="out"/>
<feColorMatrix type="matrix" values="0 0 0 0 0 0 0 0 0 0 0 0 0 0 0 0 0 0 0.1 0"/>
<feBlend mode="normal" in2="BackgroundImageFix" result="effect1_dropShadow_2755_19239"/>
<feBlend mode="normal" in="SourceGraphic" in2="effect1_dropShadow_2755_19239" result="shape"/>
</filter>
<filter id="filter28_d_2755_19239" x="102.219" y="56.2734" width="8.75" height="9.67969" filterUnits="userSpaceOnUse" color-interpolation-filters="sRGB">
<feFlood flood-opacity="0" result="BackgroundImageFix"/>
<feColorMatrix in="SourceAlpha" type="matrix" values="0 0 0 0 0 0 0 0 0 0 0 0 0 0 0 0 0 0 127 0" result="hardAlpha"/>
<feOffset dy="4"/>
<feGaussianBlur stdDeviation="2"/>
<feComposite in2="hardAlpha" operator="out"/>
<feColorMatrix type="matrix" values="0 0 0 0 0 0 0 0 0 0 0 0 0 0 0 0 0 0 0.1 0"/>
<feBlend mode="normal" in2="BackgroundImageFix" result="effect1_dropShadow_2755_19239"/>
<feBlend mode="normal" in="SourceGraphic" in2="effect1_dropShadow_2755_19239" result="shape"/>
</filter>
<filter id="filter29_d_2755_19239" x="102.219" y="61.5078" width="8.75" height="9.67969" filterUnits="userSpaceOnUse" color-interpolation-filters="sRGB">
<feFlood flood-opacity="0" result="BackgroundImageFix"/>
<feColorMatrix in="SourceAlpha" type="matrix" values="0 0 0 0 0 0 0 0 0 0 0 0 0 0 0 0 0 0 127 0" result="hardAlpha"/>
<feOffset dy="4"/>
<feGaussianBlur stdDeviation="2"/>
<feComposite in2="hardAlpha" operator="out"/>
<feColorMatrix type="matrix" values="0 0 0 0 0 0 0 0 0 0 0 0 0 0 0 0 0 0 0.1 0"/>
<feBlend mode="normal" in2="BackgroundImageFix" result="effect1_dropShadow_2755_19239"/>
<feBlend mode="normal" in="SourceGraphic" in2="effect1_dropShadow_2755_19239" result="shape"/>
</filter>
<filter id="filter30_d_2755_19239" x="82.5859" y="58.1406" width="9.49219" height="11.9219" filterUnits="userSpaceOnUse" color-interpolation-filters="sRGB">
<feFlood flood-opacity="0" result="BackgroundImageFix"/>
<feColorMatrix in="SourceAlpha" type="matrix" values="0 0 0 0 0 0 0 0 0 0 0 0 0 0 0 0 0 0 127 0" result="hardAlpha"/>
<feOffset dy="4"/>
<feGaussianBlur stdDeviation="2"/>
<feComposite in2="hardAlpha" operator="out"/>
<feColorMatrix type="matrix" values="0 0 0 0 0 0 0 0 0 0 0 0 0 0 0 0 0 0 0.1 0"/>
<feBlend mode="normal" in2="BackgroundImageFix" result="effect1_dropShadow_2755_19239"/>
<feBlend mode="normal" in="SourceGraphic" in2="effect1_dropShadow_2755_19239" result="shape"/>
</filter>
<filter id="filter31_d_2755_19239" x="101.844" y="57.9531" width="9.49219" height="11.5547" filterUnits="userSpaceOnUse" color-interpolation-filters="sRGB">
<feFlood flood-opacity="0" result="BackgroundImageFix"/>
<feColorMatrix in="SourceAlpha" type="matrix" values="0 0 0 0 0 0 0 0 0 0 0 0 0 0 0 0 0 0 127 0" result="hardAlpha"/>
<feOffset dy="4"/>
<feGaussianBlur stdDeviation="2"/>
<feComposite in2="hardAlpha" operator="out"/>
<feColorMatrix type="matrix" values="0 0 0 0 0 0 0 0 0 0 0 0 0 0 0 0 0 0 0.1 0"/>
<feBlend mode="normal" in2="BackgroundImageFix" result="effect1_dropShadow_2755_19239"/>
<feBlend mode="normal" in="SourceGraphic" in2="effect1_dropShadow_2755_19239" result="shape"/>
</filter>
<filter id="filter32_d_2755_19239" x="82.9609" y="56.4609" width="8.75" height="9.67969" filterUnits="userSpaceOnUse" color-interpolation-filters="sRGB">
<feFlood flood-opacity="0" result="BackgroundImageFix"/>
<feColorMatrix in="SourceAlpha" type="matrix" values="0 0 0 0 0 0 0 0 0 0 0 0 0 0 0 0 0 0 127 0" result="hardAlpha"/>
<feOffset dy="4"/>
<feGaussianBlur stdDeviation="2"/>
<feComposite in2="hardAlpha" operator="out"/>
<feColorMatrix type="matrix" values="0 0 0 0 0 0 0 0 0 0 0 0 0 0 0 0 0 0 0.1 0"/>
<feBlend mode="normal" in2="BackgroundImageFix" result="effect1_dropShadow_2755_19239"/>
<feBlend mode="normal" in="SourceGraphic" in2="effect1_dropShadow_2755_19239" result="shape"/>
</filter>
<linearGradient id="paint0_linear_2755_19239" x1="53.6875" y1="66.9795" x2="73.5955" y2="66.9795" gradientUnits="userSpaceOnUse">
<stop stop-color="#AF4DEC"/>
<stop offset="1" stop-color="#6D7EF7"/>
</linearGradient>
<radialGradient id="paint1_radial_2755_19239" cx="0" cy="0" r="1" gradientUnits="userSpaceOnUse" gradientTransform="translate(49.6347 36.8232) scale(12.0047 3.1846)">
<stop offset="0.125" stop-color="#6D7EF7"/>
<stop offset="0.947917" stop-color="#AF4DEC"/>
</radialGradient>
<linearGradient id="paint2_linear_2755_19239" x1="87.2422" y1="59.9656" x2="105.842" y2="59.9656" gradientUnits="userSpaceOnUse">
<stop stop-color="#AF4DEC"/>
<stop offset="1" stop-color="#6D7EF7"/>
</linearGradient>
<linearGradient id="paint3_linear_2755_19239" x1="63.4063" y1="48.6169" x2="80.7907" y2="48.6169" gradientUnits="userSpaceOnUse">
<stop stop-color="#AF4DEC"/>
<stop offset="1" stop-color="#6D7EF7"/>
</linearGradient>
<linearGradient id="paint4_linear_2755_19239" x1="97.75" y1="47.6666" x2="82.5523" y2="47.6666" gradientUnits="userSpaceOnUse">
<stop stop-color="#AF4DEC"/>
<stop offset="1" stop-color="#6D7EF7"/>
</linearGradient>
<linearGradient id="paint5_linear_2755_19239" x1="62.4766" y1="79.6387" x2="99.6755" y2="79.6387" gradientUnits="userSpaceOnUse">
<stop stop-color="#AF4DEC"/>
<stop offset="1" stop-color="#6D7EF7"/>
</linearGradient>
<linearGradient id="paint6_linear_2755_19239" x1="119.695" y1="47.2955" x2="99.3137" y2="47.2955" gradientUnits="userSpaceOnUse">
<stop stop-color="#AF4DEC"/>
<stop offset="1" stop-color="#6D7EF7"/>
</linearGradient>
<linearGradient id="paint7_linear_2755_19239" x1="99.3203" y1="49.5326" x2="119.702" y2="49.5326" gradientUnits="userSpaceOnUse">
<stop stop-color="#AF4DEC"/>
<stop offset="1" stop-color="#6D7EF7"/>
</linearGradient>
</defs>
</svg>
