<svg width="18" height="24" viewBox="0 0 18 24" fill="none" xmlns="http://www.w3.org/2000/svg">
<path fill-rule="evenodd" clip-rule="evenodd" d="M15.8479 15.4094C17.1898 13.7772 18 11.6594 18 9.34513C18 4.18396 13.9706 0 9 0C4.02944 0 0 4.18396 0 9.34513C0 11.6905 0.832093 13.8341 2.20647 15.4749L8.19842 23.5935C8.59812 24.1351 9.4079 24.1351 9.80759 23.5935L15.8479 15.4094Z" fill="#E6E7EB"/>
<ellipse cx="8.98281" cy="9.15348" rx="6.6" ry="6.72379" fill="#595E78"/>
<path d="M5.38281 12.3169C5.38281 11.6775 5.90112 11.1484 6.54049 11.1484H7.65554V12.3274C7.65554 12.955 7.14677 13.4638 6.51917 13.4638C5.89158 13.4638 5.38281 12.9445 5.38281 12.3169Z" fill="white"/>
<path d="M9.10156 11.1059C9.10156 10.4666 9.61987 9.9375 10.2592 9.9375H11.3743V11.1165C11.3743 11.7441 10.8655 12.2529 10.2379 12.2529C9.61033 12.2529 9.10156 11.7335 9.10156 11.1059Z" fill="white"/>
<rect x="7.30469" y="7.16406" width="0.363636" height="4.07502" fill="white"/>
<rect x="11.0156" y="6.14062" width="0.363636" height="4.07502" fill="white"/>
<path d="M7.30469 6.51137L11.3956 4.89063V6.65029L7.30469 8.27104V6.51137Z" fill="white"/>
</svg>
