<svg width="20" height="20" viewBox="0 0 20 20" fill="none" xmlns="http://www.w3.org/2000/svg">
<circle cx="10" cy="10" r="10" fill="#AF4DEC"/>
<path d="M5 14.3794C5 13.4838 5.72602 12.7578 6.62162 12.7578H8.24324V14.3794C8.24324 15.275 7.51722 16.0011 6.62162 16.0011C5.72602 16.0011 5 15.275 5 14.3794Z" fill="#E7BDFF"/>
<path d="M10.3203 12.6919C10.3203 11.7963 11.0463 11.0703 11.9419 11.0703H13.5636V12.6919C13.5636 13.5875 12.8375 14.3136 11.9419 14.3136C11.0463 14.3136 10.3203 13.5875 10.3203 12.6919Z" fill="#E7BDFF"/>
<rect x="7.72656" y="7.17969" width="0.518919" height="5.70811" fill="#E7BDFF"/>
<rect x="13.0469" y="5.75" width="0.518919" height="5.70811" fill="#E7BDFF"/>
<path d="M7.72656 6.27027L13.5644 4V6.46487L7.72656 8.73514V6.27027Z" fill="#E7BDFF"/>
</svg>
