<svg width="75" height="90" viewBox="0 0 75 90" fill="none" xmlns="http://www.w3.org/2000/svg">
<g clip-path="url(#clip0_2431_18998)">
<g filter="url(#filter0_d_2431_18998)">
<rect width="75" height="90" rx="15" fill="#7E86AF"/>
</g>
<path d="M28.9459 55.088V65.936H29.9059V55.088H28.9459ZM27.1219 59.504V60.32H29.2099V59.504H27.1219ZM26.4859 55.328V65.384H27.4219V55.328H26.4859ZM21.2299 56.396V62.66H22.2259V56.396H21.2299ZM21.2299 62.264V63.128H21.9259C23.0899 63.128 24.3379 63.068 25.8139 62.78L25.7059 61.916C24.2899 62.192 23.0419 62.264 21.9259 62.264H21.2299ZM42.052 55.088V61.484H43.048V55.088H42.052ZM42.628 57.86V58.688H44.632V57.86H42.628ZM36.028 61.976V62.684H42.076V63.512H36.052V65.324H37.024V64.172H43.048V61.976H36.028ZM36.052 65.108V65.816H43.468V65.108H36.052ZM37.48 59.54V60.92H38.476V59.54H37.48ZM34.696 61.244C36.592 61.244 39.172 61.232 41.488 60.824L41.404 60.188C39.172 60.5 36.508 60.512 34.576 60.512L34.696 61.244ZM34.852 55.916V56.624H41.08V55.916H34.852ZM37.972 56.96C36.424 56.96 35.44 57.488 35.44 58.388C35.44 59.288 36.424 59.816 37.972 59.816C39.508 59.816 40.492 59.288 40.492 58.388C40.492 57.488 39.508 56.96 37.972 56.96ZM37.972 57.62C38.944 57.62 39.556 57.908 39.556 58.388C39.556 58.868 38.944 59.168 37.972 59.168C37 59.168 36.376 58.868 36.376 58.388C36.376 57.908 37 57.62 37.972 57.62ZM37.48 54.98V56.288H38.476V54.98H37.48ZM45.447 60.428V61.244H55.251V60.428H45.447ZM49.851 58.688V60.764H50.835V58.688H49.851ZM46.683 58.376V59.192H54.111V58.376H46.683ZM46.683 55.58V58.856H47.667V56.384H54.027V55.58H46.683ZM50.331 62.024C48.015 62.024 46.611 62.732 46.611 63.968C46.611 65.228 48.015 65.924 50.331 65.924C52.647 65.924 54.051 65.228 54.051 63.968C54.051 62.732 52.647 62.024 50.331 62.024ZM50.331 62.792C52.035 62.792 53.043 63.224 53.043 63.968C53.043 64.724 52.035 65.144 50.331 65.144C48.639 65.144 47.619 64.724 47.619 63.968C47.619 63.224 48.639 62.792 50.331 62.792Z" fill="#EAEAEA"/>
<path d="M31 35.1066C31 35.2797 31.0597 35.4244 31.1791 35.5408C31.2984 35.6572 31.4536 35.7154 31.6446 35.7154L36.7032 35.7154L34.0352 42.9675C33.9456 43.2004 33.9292 43.4003 33.9859 43.5674C34.0426 43.7346 34.1411 43.8554 34.2814 43.93C34.4216 44.0047 34.5798 44.0196 34.7559 43.9748C34.932 43.93 35.0946 43.8151 35.2438 43.6301L43.3823 33.4592C43.5375 33.2622 43.6151 33.0712 43.6151 32.8862C43.6151 32.7131 43.5554 32.5684 43.436 32.452C43.3167 32.3356 43.1615 32.2774 42.9705 32.2774L37.9119 32.2774L40.58 25.0253C40.6695 24.7984 40.6859 24.6015 40.6292 24.4343C40.5725 24.2672 40.474 24.1464 40.3338 24.0717C40.1935 23.9971 40.0353 23.9807 39.8592 24.0225C39.6832 24.0643 39.5205 24.1807 39.3713 24.3717L31.2328 34.5336C31.0776 34.7366 31 34.9276 31 35.1066Z" fill="white" fill-opacity="0.85"/>
</g>
<defs>
<filter id="filter0_d_2431_18998" x="-4" y="0" width="83" height="98" filterUnits="userSpaceOnUse" color-interpolation-filters="sRGB">
<feFlood flood-opacity="0" result="BackgroundImageFix"/>
<feColorMatrix in="SourceAlpha" type="matrix" values="0 0 0 0 0 0 0 0 0 0 0 0 0 0 0 0 0 0 127 0" result="hardAlpha"/>
<feOffset dy="4"/>
<feGaussianBlur stdDeviation="2"/>
<feComposite in2="hardAlpha" operator="out"/>
<feColorMatrix type="matrix" values="0 0 0 0 0 0 0 0 0 0 0 0 0 0 0 0 0 0 0.1 0"/>
<feBlend mode="normal" in2="BackgroundImageFix" result="effect1_dropShadow_2431_18998"/>
<feBlend mode="normal" in="SourceGraphic" in2="effect1_dropShadow_2431_18998" result="shape"/>
</filter>
<clipPath id="clip0_2431_18998">
<rect width="75" height="90" fill="white"/>
</clipPath>
</defs>
</svg>
