<svg width="75" height="90" viewBox="0 0 75 90" fill="none" xmlns="http://www.w3.org/2000/svg">
<g clip-path="url(#clip0_2431_18987)">
<g filter="url(#filter0_d_2431_18987)">
<rect width="75" height="90" rx="15" fill="#7E86AF"/>
</g>
<path d="M30 35.1293C30 35.3184 30.0683 35.4764 30.2049 35.6035C30.3416 35.7306 30.5192 35.7942 30.7378 35.7942H36.5271L33.4736 43.7141C33.3711 43.9683 33.3524 44.1867 33.4173 44.3692C33.4821 44.5517 33.5949 44.6837 33.7554 44.7652C33.9159 44.8467 34.0969 44.863 34.2985 44.8141C34.5 44.7652 34.6861 44.6397 34.8569 44.4376L44.1711 33.3302C44.3487 33.1151 44.4375 32.9065 44.4375 32.7044C44.4375 32.5154 44.3692 32.3574 44.2325 32.2303C44.096 32.1031 43.9184 32.0395 43.6998 32.0395H37.9104L40.9639 24.1197C41.0664 23.872 41.0851 23.6569 41.0202 23.4743C40.9554 23.2918 40.8427 23.1598 40.6821 23.0783C40.5216 22.9969 40.3406 22.9789 40.139 23.0246C39.9375 23.0702 39.7514 23.1973 39.5806 23.4059L30.2664 34.5036C30.0888 34.7252 30 34.9338 30 35.1293Z" fill="white" fill-opacity="0.85"/>
<circle cx="42.8719" cy="39.036" r="4.20788" fill="white" stroke="#7E86AF"/>
<line x1="42.8047" y1="37.0859" x2="42.8047" y2="40.98" stroke="#7E86AF" stroke-width="0.5" stroke-linecap="round"/>
<line x1="40.9219" y1="39.1016" x2="44.8159" y2="39.1016" stroke="#7E86AF" stroke-width="0.5" stroke-linecap="round"/>
<path d="M8.91484 63.728V64.556H18.7428V63.728H8.91484ZM13.3068 60.92V63.956H14.3028V60.92H13.3068ZM10.0548 55.988V61.1H17.5428V55.988H10.0548ZM16.5828 56.792V60.296H11.0268V56.792H16.5828ZM24.5979 57.5V58.328H27.8739V57.5H24.5979ZM24.5979 60.932V61.76H27.8739V60.932H24.5979ZM22.6059 55.916C21.0219 55.916 19.9059 57.392 19.9059 59.696C19.9059 62.012 21.0219 63.488 22.6059 63.488C24.1779 63.488 25.3059 62.012 25.3059 59.696C25.3059 57.392 24.1779 55.916 22.6059 55.916ZM22.6059 56.816C23.6499 56.816 24.3699 57.944 24.3699 59.696C24.3699 61.46 23.6499 62.612 22.6059 62.612C21.5619 62.612 20.8419 61.46 20.8419 59.696C20.8419 57.944 21.5619 56.816 22.6059 56.816ZM27.6579 55.076V65.948H28.6419V55.076H27.6579ZM30.981 60.284V61.112H31.833C33.837 61.112 35.265 61.052 36.981 60.752L36.897 59.936C35.205 60.224 33.801 60.284 31.833 60.284H30.981ZM30.957 55.724V56.54H34.857V57.968H30.981V60.692H31.953V58.736H35.841V55.724H30.957ZM37.929 55.1V61.688H38.925V55.1H37.929ZM38.625 57.86V58.7H40.533V57.86H38.625ZM31.881 62.252V63.068H37.929V65.936H38.925V62.252H31.881ZM49.523 56.384V57.188H52.607V56.384H49.523ZM49.523 58.628V59.42H52.607V58.628H49.523ZM47.399 55.448C45.779 55.448 44.603 56.468 44.603 57.932C44.603 59.372 45.779 60.392 47.399 60.392C49.019 60.392 50.195 59.372 50.195 57.932C50.195 56.468 49.019 55.448 47.399 55.448ZM47.399 56.276C48.467 56.276 49.247 56.96 49.247 57.932C49.247 58.892 48.467 59.576 47.399 59.576C46.331 59.576 45.563 58.892 45.563 57.932C45.563 56.96 46.331 56.276 47.399 56.276ZM52.367 55.088V60.644H53.363V55.088H52.367ZM46.379 61.196V61.988H52.379V63.068H46.403V65.444H47.375V63.812H53.363V61.196H46.379ZM46.403 65V65.792H53.759V65H46.403ZM63.1421 55.088V65.936H64.1381V55.088H63.1421ZM59.9621 56.252V56.42C59.9621 59.3 58.5101 61.604 55.3781 63.116L55.9061 63.92C59.5301 62.144 60.9461 59.396 60.9461 56.252H59.9621ZM55.8701 56.252V57.068H60.3941V56.252H55.8701Z" fill="#EAEAEA"/>
</g>
<defs>
<filter id="filter0_d_2431_18987" x="-4" y="0" width="83" height="98" filterUnits="userSpaceOnUse" color-interpolation-filters="sRGB">
<feFlood flood-opacity="0" result="BackgroundImageFix"/>
<feColorMatrix in="SourceAlpha" type="matrix" values="0 0 0 0 0 0 0 0 0 0 0 0 0 0 0 0 0 0 127 0" result="hardAlpha"/>
<feOffset dy="4"/>
<feGaussianBlur stdDeviation="2"/>
<feComposite in2="hardAlpha" operator="out"/>
<feColorMatrix type="matrix" values="0 0 0 0 0 0 0 0 0 0 0 0 0 0 0 0 0 0 0.1 0"/>
<feBlend mode="normal" in2="BackgroundImageFix" result="effect1_dropShadow_2431_18987"/>
<feBlend mode="normal" in="SourceGraphic" in2="effect1_dropShadow_2431_18987" result="shape"/>
</filter>
<clipPath id="clip0_2431_18987">
<rect width="75" height="90" fill="white"/>
</clipPath>
</defs>
</svg>
