<svg width="75" height="90" viewBox="0 0 75 90" fill="none" xmlns="http://www.w3.org/2000/svg">
<g clip-path="url(#clip0_2431_19009)">
<g filter="url(#filter0_d_2431_19009)">
<rect width="75" height="90" rx="15" fill="#7E86AF"/>
</g>
<path d="M12.4103 56.996H15.4223V62.36H12.4103V56.996ZM11.4503 63.152H16.3823V56.204H11.4503V63.152ZM21.0743 59.42H19.2983V55.136H18.3143V65.888H19.2983V60.248H21.0743V59.42ZM29.6414 55.124V65.912H30.6254V55.124H29.6414ZM24.9494 55.952C23.3534 55.952 22.2134 57.416 22.2134 59.708C22.2134 62 23.3534 63.464 24.9494 63.464C26.5454 63.464 27.6854 62 27.6854 59.708C27.6854 57.416 26.5454 55.952 24.9494 55.952ZM24.9494 56.84C25.9934 56.84 26.7374 57.968 26.7374 59.708C26.7374 61.46 25.9934 62.588 24.9494 62.588C23.8934 62.588 23.1494 61.46 23.1494 59.708C23.1494 57.968 23.8934 56.84 24.9494 56.84ZM34.5005 57.284H35.8445V62.336C35.3885 62.36 34.9445 62.372 34.5005 62.384V57.284ZM36.7445 57.284H37.6325V56.492H32.7125V57.284H33.6005V62.408C33.1925 62.42 32.8325 62.42 32.5085 62.42L32.6045 63.236C34.0085 63.236 36.2645 63.188 37.9325 62.876L37.8725 62.156C37.5245 62.204 37.1285 62.24 36.7445 62.276V57.284ZM38.7845 59.228H37.3085V60.092H38.7845V65.324H39.7085V55.388H38.7845V59.228ZM40.8605 55.136V65.888H41.8085V55.136H40.8605ZM51.2395 55.124V65.912H52.2235V55.124H51.2395ZM46.5475 55.952C44.9515 55.952 43.8115 57.416 43.8115 59.708C43.8115 62 44.9515 63.464 46.5475 63.464C48.1435 63.464 49.2835 62 49.2835 59.708C49.2835 57.416 48.1435 55.952 46.5475 55.952ZM46.5475 56.84C47.5915 56.84 48.3355 57.968 48.3355 59.708C48.3355 61.46 47.5915 62.588 46.5475 62.588C45.4915 62.588 44.7475 61.46 44.7475 59.708C44.7475 57.968 45.4915 56.84 46.5475 56.84ZM58.0546 57.044H60.5866V56.228H54.5746V57.044H57.0706V58.412C57.0706 60.272 55.7626 62.3 54.2146 63.032L54.7906 63.824C56.0146 63.2 57.0706 61.844 57.5626 60.272C58.0786 61.748 59.1346 62.984 60.3826 63.56L60.9346 62.768C59.3506 62.096 58.0546 60.236 58.0546 58.412V57.044ZM62.0386 55.136V65.888H63.0226V55.136H62.0386Z" fill="#EAEAEA"/>
<path d="M30.3926 41.0859H42.668C44.263 41.0859 45.0605 40.5651 45.0605 39.5234C45.0605 38.8854 44.8652 38.2051 44.4746 37.4824C44.084 36.7598 43.5192 36.0778 42.7803 35.4365C42.0414 34.7953 41.1462 34.2728 40.0947 33.8691C39.0433 33.4655 37.8568 33.2636 36.5352 33.2636C35.207 33.2636 34.0173 33.4655 32.9658 33.8691C31.9144 34.2728 31.0192 34.7953 30.2803 35.4365C29.5413 36.0778 28.9766 36.7598 28.5859 37.4824C28.1953 38.2051 28 38.8854 28 39.5234C28 40.5651 28.7975 41.0859 30.3926 41.0859ZM29.9336 39.6113C29.8034 39.6113 29.7106 39.5918 29.6553 39.5527C29.5999 39.5137 29.5723 39.4421 29.5723 39.3379C29.5723 38.9408 29.7236 38.4802 30.0264 37.956C30.3291 37.432 30.7767 36.9258 31.3691 36.4375C31.9616 35.9492 32.6908 35.5439 33.5566 35.2216C34.4225 34.8994 35.4154 34.7382 36.5352 34.7382C37.6549 34.7382 38.6461 34.8994 39.5088 35.2216C40.3714 35.5439 41.0989 35.9492 41.6914 36.4375C42.2839 36.9258 42.7315 37.432 43.0342 37.956C43.3369 38.4802 43.4883 38.9408 43.4883 39.3379C43.4883 39.4421 43.4606 39.5137 43.4053 39.5527C43.35 39.5918 43.2604 39.6113 43.1367 39.6113H29.9336ZM36.5352 32.0527C37.3099 32.0527 38.0163 31.8444 38.6543 31.4277C39.2923 31.0111 39.8017 30.4561 40.1826 29.7627C40.5635 29.0693 40.7539 28.3027 40.7539 27.4629C40.7539 26.6296 40.5651 25.876 40.1875 25.2021C39.8099 24.5283 39.3021 23.9928 38.6641 23.5957C38.0261 23.1986 37.3164 23 36.5352 23C35.7604 23 35.054 23.2018 34.416 23.6055C33.778 24.0091 33.2686 24.5495 32.8877 25.2266C32.5068 25.9036 32.3164 26.6556 32.3164 27.4824C32.3164 28.3158 32.5068 29.0791 32.8877 29.7725C33.2686 30.4658 33.778 31.0192 34.416 31.4326C35.054 31.846 35.7604 32.0527 36.5352 32.0527ZM36.5352 30.5781C36.0599 30.5781 35.6221 30.4398 35.2217 30.1631C34.8213 29.8864 34.499 29.5137 34.2549 29.0449C34.0107 28.5762 33.8887 28.0553 33.8887 27.4824C33.8887 26.916 34.0091 26.4066 34.25 25.9541C34.4909 25.5016 34.8115 25.1419 35.2119 24.875C35.6123 24.6081 36.0534 24.4746 36.5352 24.4746C37.0234 24.4746 37.4678 24.6048 37.8682 24.8652C38.2686 25.1256 38.5876 25.4821 38.8252 25.9346C39.0628 26.387 39.1816 26.8965 39.1816 27.4629C39.1816 28.0358 39.0612 28.5583 38.8203 29.0303C38.5794 29.5023 38.2588 29.8783 37.8584 30.1582C37.458 30.4382 37.0169 30.5781 36.5352 30.5781Z" fill="#EAEAEA"/>
</g>
<defs>
<filter id="filter0_d_2431_19009" x="-4" y="0" width="83" height="98" filterUnits="userSpaceOnUse" color-interpolation-filters="sRGB">
<feFlood flood-opacity="0" result="BackgroundImageFix"/>
<feColorMatrix in="SourceAlpha" type="matrix" values="0 0 0 0 0 0 0 0 0 0 0 0 0 0 0 0 0 0 127 0" result="hardAlpha"/>
<feOffset dy="4"/>
<feGaussianBlur stdDeviation="2"/>
<feComposite in2="hardAlpha" operator="out"/>
<feColorMatrix type="matrix" values="0 0 0 0 0 0 0 0 0 0 0 0 0 0 0 0 0 0 0.1 0"/>
<feBlend mode="normal" in2="BackgroundImageFix" result="effect1_dropShadow_2431_19009"/>
<feBlend mode="normal" in="SourceGraphic" in2="effect1_dropShadow_2431_19009" result="shape"/>
</filter>
<clipPath id="clip0_2431_19009">
<rect width="75" height="90" fill="white"/>
</clipPath>
</defs>
</svg>
